<svg width="317" height="333" viewBox="0 0 317 333" fill="none" xmlns="http://www.w3.org/2000/svg">
<mask id="mask0_138_12925" style="mask-type:alpha" maskUnits="userSpaceOnUse" x="0" y="0" width="317" height="333">
<rect width="316.054" height="333" fill="#1A1A1A"/>
</mask>
<g mask="url(#mask0_138_12925)">
<g opacity="0.6">
<path fill-rule="evenodd" clip-rule="evenodd" d="M6.89265 212.855C5.99519 213.531 4.38545 214.295 5.31652 215.685C6.01318 216.695 8.16743 218.175 8.37555 218.038C11.5557 215.737 14.2215 218.814 17.1425 218.46C17.5003 218.448 17.8351 217.985 18.4562 217.512C17.8377 216.628 17.1443 215.682 16.5225 214.734C13.3485 210.123 11.1036 209.68 6.89265 212.855Z" fill="#333333"/>
<path fill-rule="evenodd" clip-rule="evenodd" d="M120.056 55.6509C120.053 55.5867 119.275 55.7411 119 55.9432C115.146 58.7737 114.646 62.9738 112.76 66.5761C114.082 67.3048 114.759 67.9904 115.55 68.093C116.337 68.1314 117.743 67.6988 117.791 67.2466C118.024 66.2092 118.328 65.1693 118.564 64.1961C119.182 63.7251 119.726 63.1923 120.254 62.3381C119.81 62.031 119.389 62.1736 119.043 62.3781C119.534 60.8172 120.1 59.3181 120.955 57.8739C121.285 57.3481 120.448 56.346 120.056 55.6509Z" fill="#333333"/>
<path fill-rule="evenodd" clip-rule="evenodd" d="M0.379386 249.184C-0.0486293 250.617 1.54715 252.433 3.41166 252.501C6.85812 252.709 8.67348 251.812 8.71794 249.876C8.79194 248.52 6.19816 245.382 4.8273 245.17C3.5279 244.955 0.995526 247.23 0.379386 249.184Z" fill="#333333"/>
<path fill-rule="evenodd" clip-rule="evenodd" d="M-10.9404 225.204C-11.2922 225.346 -11.4841 225.806 -11.7575 226.075C-11.3861 226.322 -11.0015 226.828 -10.6432 226.816C-6.98538 226.76 -3.39906 226.706 0.252188 226.52C0.610477 226.509 1.23561 226.099 1.2941 225.837C1.35259 225.576 0.899639 225.137 0.596553 224.823C-2.50925 221.617 -3.23245 221.511 -7.35495 223.723C-8.47514 224.279 -9.7486 224.646 -10.9404 225.204Z" fill="#333333"/>
<path fill-rule="evenodd" clip-rule="evenodd" d="M15.7764 238.686C17.0096 238.968 18.2528 239.444 19.1858 238.056C18.8016 237.552 18.2447 236.472 18.0333 236.544C16.9045 236.904 15.857 237.455 14.8064 237.942C15.1059 238.191 15.4152 238.633 15.7764 238.686Z" fill="#333333"/>
<path fill-rule="evenodd" clip-rule="evenodd" d="M185.797 27.0016C185.761 26.2953 185.082 25.546 184.691 24.8516C184.372 25.5695 183.697 26.2993 183.733 27.0055C183.743 27.1981 183.895 27.386 183.979 27.6405C183.259 28.8862 182.559 30.5171 183.36 30.8765C183.754 30.2204 184.238 29.9471 184.823 30.2493C185.204 29.3364 185.446 28.4923 185.484 27.8479C185.617 27.6506 185.742 27.3249 185.797 27.0016Z" fill="#333333"/>
<path fill-rule="evenodd" clip-rule="evenodd" d="M103.941 134.172C103.642 133.924 103.405 133.48 103.119 133.49C102.833 133.499 102.567 133.895 102.295 134.162C102.737 134.405 103.178 134.648 103.549 134.894C103.679 134.632 103.812 134.434 103.941 134.172Z" fill="#333333"/>
<path fill-rule="evenodd" clip-rule="evenodd" d="M115.6 93.501C116.652 93.0794 116.837 92.493 116.1 92.066C115.879 91.9443 115.524 92.0205 115.167 92.0323C115.037 92.2944 114.696 92.6281 114.774 92.7545C114.934 93.0716 115.46 93.5701 115.6 93.501Z" fill="#333333"/>
<path fill-rule="evenodd" clip-rule="evenodd" d="M179.732 44.7485C180.021 44.8034 180.352 44.2767 180.628 44.0741C180.326 43.7617 180.027 43.5137 179.724 43.2012C179.38 43.4705 179.107 43.7374 178.763 44.0067C179.134 44.2524 179.371 44.6959 179.732 44.7485Z" fill="#333333"/>
<path fill-rule="evenodd" clip-rule="evenodd" d="M185.192 36.4611C185.452 33.173 187.153 31.6376 186.778 29.8495C186.384 30.5056 185.9 30.7788 185.315 30.4767C184.39 33.2724 182.912 36.408 185.192 36.4611Z" fill="#333333"/>
<path fill-rule="evenodd" clip-rule="evenodd" d="M196.997 56.5033C197.585 55.5197 198.28 55.2395 198.978 55.0236C199.246 50.5156 199.812 49.0828 199.713 45.7439C197.798 49.921 198.255 50.5485 196.474 53.1785C199.128 52.3834 195.507 56.4885 196.997 56.5033Z" fill="#333333"/>
<path fill-rule="evenodd" clip-rule="evenodd" d="M121.163 73.9866C122.448 71.2427 123.869 69.7807 125.278 68.0618C120.564 66.4167 130.081 61.664 126.382 58.9563C125.914 60.9657 125.005 65.4981 122.654 64.0965C122.2 60.7669 127.89 56.398 124.712 55.5383C122.847 60.8741 121.526 64.3267 117.927 67.7903C122.371 65.5209 118.937 70.8442 122.757 68.917C122.205 70.6719 118.735 73.8739 121.163 73.9866Z" fill="#333333"/>
<path fill-rule="evenodd" clip-rule="evenodd" d="M120.175 167.783C121.872 170.177 124.414 166.676 124.667 164.605C122.865 167.179 121.973 165.145 120.175 167.783Z" fill="#333333"/>
<path fill-rule="evenodd" clip-rule="evenodd" d="M105.609 201.699C106.398 198.899 98.2142 205.555 97.5262 207.513C100.175 207.49 102.512 208.38 105.534 207.249C105.176 205.841 103.547 204.799 105.236 202.808C106.653 202.503 114.843 195.976 112.72 195.078C109.806 196.916 108.062 199.231 105.609 201.699Z" fill="#333333"/>
<path fill-rule="evenodd" clip-rule="evenodd" d="M145.001 44.8609C144.998 44.7967 145.066 44.7302 145.063 44.666C144.995 44.7326 144.998 44.7968 144.927 44.7991L145.001 44.8609Z" fill="#333333"/>
<path fill-rule="evenodd" clip-rule="evenodd" d="M-255.455 -526.545C-268.422 -525.408 -281.174 -524.278 -293.5 -523.227C-296.562 -522.933 -299.624 -522.639 -302.615 -522.347C-305.596 -521.862 -308.58 -521.441 -311.49 -520.958C-317.308 -519.993 -322.988 -519.097 -328.453 -518.208C-332.747 -515.423 -349.488 -515.323 -353.011 -510.05C-359.642 -509.574 -361.997 -509.432 -367.938 -506.658C-366.404 -510.253 -375.01 -505.006 -374.573 -507.663C-379.381 -505.12 -386.432 -505.854 -388.018 -503.288C-380.793 -504.751 -376.853 -507.459 -373.822 -505.561C-380.702 -504.367 -387.182 -500.931 -392.603 -501.977C-397.651 -499.941 -406.166 -494.311 -411.203 -494.854C-410.647 -492.359 -417.34 -493.105 -419.43 -490.587C-419.449 -489.555 -417.179 -489.952 -418.64 -489.13C-422.37 -486.494 -428.745 -486.606 -431.624 -484.126C-430.286 -484.557 -429.02 -484.985 -428.896 -483.958C-432.032 -482.308 -432.526 -483.581 -435.663 -481.93C-435.142 -480.143 -430.561 -482.936 -428.347 -483.01C-426.968 -485.44 -414.549 -490.296 -412.37 -489.659C-415.691 -487.423 -416.248 -485.729 -420.766 -485.902C-420.823 -484.224 -418.109 -485.732 -417.557 -484.719C-413.975 -486.062 -414.704 -487.713 -410.765 -489.068C-410.826 -487.454 -412.9 -486.033 -413.608 -484.462C-409.666 -485.753 -411.69 -487.555 -408.109 -488.898C-406.65 -488.366 -410.54 -486.046 -407.147 -486.867C-406.812 -487.329 -406.4 -487.665 -405.91 -487.874C-405.822 -487.555 -405.734 -487.236 -405.575 -486.919C-405.185 -486.287 -404.72 -485.593 -404.33 -484.962C-404.837 -485.074 -405.207 -485.32 -405.444 -485.763C-408.359 -483.991 -409.019 -484.292 -412.146 -483.866C-411.512 -482.662 -406.632 -483.79 -404.096 -484.583C-403.167 -483.196 -402.309 -481.806 -401.447 -480.352C-401.369 -480.226 -401.57 -479.961 -401.843 -479.694C-402.902 -479.402 -403.885 -479.047 -404.941 -478.69C-406.152 -478.586 -407.356 -478.352 -408.233 -477.292C-411.385 -475.964 -414.479 -474.895 -416.974 -476.102C-418.658 -472.63 -433.103 -468.222 -437.055 -468.543C-436.704 -467.266 -438.557 -465.722 -440.778 -464.36C-441.635 -464.332 -442.421 -464.306 -443.285 -464.406C-444.434 -464.497 -444.82 -463.647 -444.479 -462.562C-446.511 -461.722 -448.281 -461.341 -448.59 -461.782C-450.151 -460.119 -451.787 -458.518 -453.562 -456.849C-454.965 -456.287 -456.367 -455.725 -457.766 -455.099C-457.773 -455.227 -457.708 -455.358 -457.643 -455.489C-462.328 -453.337 -466.653 -451.132 -470.828 -448.803C-470.896 -448.736 -470.967 -448.734 -471.035 -448.667C-480.58 -443.583 -489.799 -437.736 -498.275 -431.334C-502.168 -429.078 -506.271 -426.752 -510.797 -424.282C-510.118 -423.596 -510.5 -422.681 -511.455 -421.747C-516.004 -421.146 -520.431 -416.746 -524.397 -413.135C-527.498 -412.195 -530.43 -410.745 -533.27 -408.911C-533.491 -409.032 -533.712 -409.154 -533.94 -409.404C-535.663 -408.123 -535.851 -407.601 -535.617 -407.222C-536.377 -406.681 -537.062 -406.079 -537.75 -405.54C-540.775 -403.12 -543.716 -400.445 -546.667 -397.963C-549.539 -395.355 -552.418 -392.875 -555.467 -390.906C-565.245 -384.783 -575.308 -378.65 -584.833 -371.762C-593.986 -364.628 -602.526 -356.677 -607.655 -346.389C-609.339 -344.335 -606.189 -344.31 -607.526 -342.462C-613.368 -336.339 -618.541 -328.306 -624.067 -320.196C-629.005 -311.783 -634.443 -303.354 -639.044 -295.34C-646.059 -284.152 -655.218 -274.311 -659.663 -261.854C-662.011 -254.558 -663.608 -247.996 -663.868 -241.864C-664.056 -235.735 -663.196 -230.092 -661.066 -224.813C-665.523 -213.967 -659.251 -199.028 -666.977 -189.17C-666.499 -186.801 -663.771 -186.633 -665 -182.661C-665.498 -179.809 -666.943 -180.083 -667.875 -178.699C-664.556 -178.164 -664.995 -179.761 -662.522 -177.586C-662.16 -185.913 -660.7 -189.57 -661.942 -197.07C-661.108 -198.966 -659.916 -199.457 -659.285 -202.507C-659.852 -219.245 -659.155 -239.248 -652.369 -260.548C-645.541 -281.011 -630.18 -298.339 -626.291 -313.291C-624 -316.073 -621.994 -313.239 -619.794 -314.988C-617.778 -323.175 -609.729 -326.727 -604.71 -334.949C-600.92 -340.617 -600.7 -347.521 -595.79 -353.677C-590.59 -359.778 -585.368 -364.01 -579.869 -368.445C-574.217 -372.692 -568.287 -377.077 -561.526 -383.423C-561.1 -383.501 -560.746 -383.578 -560.321 -383.656C-562.885 -380.607 -565.352 -378.463 -569.113 -373.634C-570.432 -374.235 -567.38 -376.14 -568.134 -376.889C-571.889 -373.349 -574.164 -370.245 -576.533 -367.589C-578.902 -364.932 -581.437 -362.722 -585.343 -360.724C-582.842 -359.389 -587.506 -355.432 -586.271 -353.668C-582.26 -357.796 -577.236 -363.118 -572.803 -363.2C-574.96 -359.197 -578.922 -359.711 -578.947 -357.39C-573.928 -360.005 -571.29 -362.992 -568.82 -366.489C-566.351 -369.987 -563.595 -373.494 -558.934 -377.514C-558.265 -377.021 -558.304 -376.375 -558.411 -375.663C-554.583 -377.787 -552.143 -381.863 -549.936 -384.901C-548.826 -385.582 -547.794 -386.389 -546.758 -387.133C-547.089 -386.606 -547.349 -386.082 -547.459 -385.434C-545.991 -386.126 -544.462 -387.015 -542.988 -387.579C-543.316 -386.988 -543.504 -386.466 -543.416 -386.147C-542.667 -386.881 -541.913 -387.55 -541.157 -388.155C-540.378 -388.31 -539.595 -388.4 -538.942 -388.228C-541.823 -382.977 -543.081 -378.166 -544.059 -373.493C-545.166 -372.748 -546.283 -372.196 -547.263 -371.776L-545.918 -370.661C-545.312 -371.39 -544.763 -371.859 -544.283 -372.261C-544.389 -371.549 -544.571 -370.899 -544.678 -370.186C-545.018 -369.853 -545.359 -369.519 -545.775 -369.248C-546.447 -369.805 -549.321 -368.615 -547.278 -367.844C-546.323 -368.778 -545.619 -368.995 -545.031 -368.692C-546.02 -367.048 -546.568 -365.161 -547.931 -363.827C-549.431 -362.36 -551.905 -361.762 -553.632 -360.545C-555.979 -358.857 -555.733 -354.031 -552.891 -353.029C-551.943 -352.673 -551.137 -352.313 -550.257 -351.891C-551.039 -350.383 -551.963 -348.87 -552.96 -347.355C-555.99 -347.835 -559.042 -347.348 -562.052 -346.024C-562.47 -345.817 -562.476 -344.527 -562.437 -343.755C-562.42 -343.434 -562.037 -342.931 -561.673 -342.814C-561.527 -342.754 -561.381 -342.695 -561.163 -342.637C-562.12 -340.35 -563.431 -337.986 -566.402 -337.308C-565.583 -336.691 -564.781 -336.395 -563.794 -336.685C-562.596 -338.465 -561.61 -340.173 -559.497 -342.241C-559.283 -342.248 -559.069 -342.255 -559 -342.322C-557.978 -343.322 -556.786 -343.813 -555.592 -344.239C-560.217 -339.51 -564.072 -335.129 -566.928 -330.782C-567.593 -329.793 -568.115 -328.809 -568.712 -327.887C-568.862 -328.011 -569.011 -328.135 -569.161 -328.259C-569.505 -327.99 -569.849 -327.72 -570.193 -327.451C-569.894 -327.203 -569.667 -326.953 -569.371 -326.769C-571.146 -323.682 -572.498 -320.737 -573.64 -317.863C-574.73 -316.796 -575.824 -315.793 -576.785 -314.988C-577.59 -313.93 -578.245 -312.749 -578.972 -311.565C-595.323 -294.01 -610.834 -271.199 -621.807 -246.41C-634.094 -219.322 -640.921 -190.416 -642.558 -166.386C-645.137 -160.823 -647.018 -155.604 -648.015 -149.9C-649.084 -144.193 -649.775 -138.112 -649.408 -130.905C-656.389 -123.263 -656.648 -108.689 -655.14 -94.5591C-654.745 -91.0273 -654.35 -87.4956 -653.962 -84.0924C-653.503 -80.6917 -652.975 -77.3576 -652.674 -74.2739C-652.142 -68.0397 -652.08 -62.6278 -653.377 -58.589C-643.674 -52.1417 -644.799 -29.289 -647.535 -21.2068C-644.128 -20.3524 -642.457 -17.056 -641.686 -13.1499C-640.843 -9.2462 -640.681 -4.67552 -640.783 -1.06288C-642.056 -0.763104 -645.124 -6.20469 -643.4 -0.460969C-642.902 2.29402 -641.486 1.98949 -640.492 3.2457C-641.776 6.12394 -642.239 9.68402 -644.579 11.5014C-643.528 16.6872 -641.154 16.9312 -640.102 22.117C-642.294 21.2226 -644.607 20.7833 -646.261 17.8086C-649.844 10.7082 -647.425 9.01719 -647.496 4.83018C-649.681 5.48231 -649.546 8.12036 -651.389 4.24963C-646.393 1.18456 -655.193 -4.39024 -651.205 -8.96892C-650.359 -6.41874 -649.4 -4.45241 -647.935 -3.79174C-650.276 -8.99955 -652.605 -15.3679 -654.555 -19.944C-654.194 -18.4735 -654.225 -16.2812 -655.12 -18.3786C-654.889 7.2009 -648.528 30.9025 -638.667 53.0707C-628.731 75.3009 -615.364 96.0644 -599.632 116.879C-599.89 120.239 -597.144 124.982 -594.832 129.611C-583.685 140.522 -576.744 148.93 -566.483 146.658C-578.259 133.254 -589 123.296 -603.967 99.2334C-605.129 93.2778 -604.398 87.9686 -600.412 84.7435C-586.355 102.197 -577.695 124.663 -561.265 139.525C-558.868 141.637 -557.068 141.836 -555.028 143.96C-542.561 156.89 -537.735 164.529 -529.472 173.602C-513.329 191.245 -491.405 205.797 -471.722 219.907C-467.343 222.985 -465.174 229.036 -458.153 229.192C-463.237 224.912 -468.614 220.513 -473.951 216.887C-479.224 213.129 -484.191 209.748 -488.592 207.638C-493.349 202.767 -499.837 196.214 -507.024 190.006C-513.801 183.397 -521.283 177.006 -526.868 171.325C-529.111 168.047 -531.415 164.965 -533.712 162.012C-535.942 158.992 -538.161 156.165 -540.449 153.404C-545.163 147.953 -549.729 142.625 -554.515 137.175C-564.088 126.277 -573.924 114.42 -582.775 98.0188C-579.676 94.2429 -582.85 90.9317 -585.633 85.4807C-580.724 83.5141 -581.113 78.6931 -583.925 72.663C-586.998 69.9285 -586.034 76.2129 -588.614 73.3332C-589.106 69.2891 -589.303 65.4285 -586.044 63.3875C-584.379 66.5551 -581.991 69.8923 -582.243 71.963C-579.023 69.1499 -583.453 62.2708 -578.69 60.2447C-575.047 65.7318 -570.923 70.8163 -566.881 75.7101C-562.559 80.4659 -558.316 85.0953 -554.007 89.5937C-545.248 98.5858 -536.855 107.397 -529.598 117.792C-529.327 121.714 -531.017 125.057 -529.872 129.273C-525.082 129.179 -529.73 120.825 -527.309 117.781C-523.625 119.85 -519.951 123.145 -516.15 126.113C-514.961 126.977 -513.772 127.84 -512.654 128.705C-512.573 128.896 -512.492 129.086 -512.407 129.341C-511.132 133.295 -509.395 137.879 -504.66 139.527C-503.858 139.823 -503.124 140.185 -502.393 140.483C-499.667 143.423 -496.954 146.105 -494.254 148.529C-494.176 148.656 -494.098 148.782 -494.017 148.973C-493.575 149.216 -493.273 149.528 -492.902 149.774C-492.379 150.208 -491.849 150.77 -491.255 151.202C-488.305 154.327 -487.952 158.44 -487.81 162.625C-487.735 164.105 -486.767 164.846 -485.247 165.183C-484.376 165.412 -483.428 165.767 -482.759 166.261C-481.121 167.496 -478.276 168.562 -481.08 171.104C-480.394 173.337 -478.406 174.432 -476.295 175.135C-472.365 176.424 -469.552 178.264 -469.624 182.456C-469.656 183.231 -469.246 184.248 -468.649 184.744C-465.072 187.526 -462.712 191.702 -457.785 192.893C-454.599 193.626 -455.124 195.964 -454.671 197.818C-453.869 198.114 -452.785 198.336 -452.547 198.779C-450.079 205.078 -445.335 209.691 -439.962 214.026C-437.126 216.317 -434.371 218.417 -432.697 221.778C-430.392 226.278 -428.259 231.621 -420.518 230.464C-419.524 230.302 -418.159 231.804 -417.042 232.669C-415.249 234.157 -413.598 235.65 -411.941 237.271C-411.113 238.081 -409.216 238.792 -410.933 240.202C-412.101 241.143 -412.698 243.483 -415.219 241.761C-415.959 241.27 -416.908 240.915 -417.836 240.945C-418.694 240.974 -419.525 241.517 -420.298 241.8C-419.992 242.177 -419.761 242.491 -419.456 242.868C-416.954 245.621 -413.436 247.245 -409.874 246.935C-408.023 246.745 -406.689 246.249 -405.194 247.489C-402.8 249.537 -400.058 251.38 -399.956 254.793C-399.817 258.913 -397.399 255.804 -395.811 256.074C-392.778 256.618 -388.77 258.033 -387.369 260.243C-385.894 262.514 -384.026 264.064 -381.963 265.22C-384.704 264.795 -387.448 264.306 -390.141 263.428C-406.556 258.684 -424.565 246.517 -440.834 241.833C-443.516 235.541 -445.686 240.704 -451.902 233.884C-453.931 234.788 -457.808 235.948 -456.56 237.969C-456.8 238.879 -455.819 239.878 -454.837 240.877C-445.678 243.668 -440.21 248.451 -431.607 250.165C-413.541 264.844 -392.523 272.852 -369.983 278.425C-369.882 279.001 -369.784 279.514 -369.823 280.159C-368.897 280.064 -368.206 279.59 -367.807 278.997C-367.3 279.109 -366.865 279.224 -366.358 279.336C-364.185 279.845 -362.016 280.289 -359.846 280.733C-359.005 281.801 -358.235 282.871 -357.529 284.072C-356.346 286.225 -354.127 287.634 -350.766 287.587C-341.187 287.4 -341.105 287.591 -335.707 295.211C-335.246 295.841 -334.996 296.541 -334.745 297.242C-333.021 297.379 -331.978 298.182 -331.688 299.655C-329.412 299.387 -327.433 296.099 -324.758 299.426C-323.384 301.121 -321.448 302.604 -319.391 303.632C-318.511 304.054 -317.702 304.479 -316.89 304.968C-317.247 304.979 -317.53 305.053 -317.812 305.127C-317.234 305.237 -316.51 305.406 -315.857 305.578C-314.892 306.255 -313.992 307.063 -313.216 308.262C-311.662 310.66 -309.137 308.257 -307.257 307.228C-301.696 311.04 -293.972 306.725 -288.589 311.253C-284.799 311.192 -280.828 310.481 -277.214 311.2C-273.092 312.031 -269.357 313.712 -264.885 312.984C-261.622 312.426 -259.54 313.968 -258.467 316.769C-258.297 317.279 -256.479 317.863 -256.063 317.592C-253.083 315.689 -250.166 316.753 -247.201 317.364C-242.868 313.934 -237.399 314.527 -232.245 314.55C-227.163 314.576 -221.805 312.982 -217.056 316.305C-216.166 316.92 -214.202 316.147 -213.699 314.777C-213.067 313.144 -212.723 311.457 -210.216 311.504C-208.284 311.504 -206.43 311.379 -204.508 311.186C-196.672 310.477 -188.455 311.624 -181.063 307.835C-180.157 307.354 -178.335 308.003 -177.03 308.347C-175.867 308.695 -175.009 310.085 -173.503 308.746C-171.247 306.674 -168.22 307.089 -165.424 307.19C-159.403 307.379 -156.692 307.225 -154.325 305.922C-150.773 304 -146.845 302.453 -144.219 299.208C-143.21 297.95 -141.428 296.409 -139.86 296.293C-135.512 295.956 -131.55 295.052 -127.93 293.064C-120.461 293.591 -114.481 290.171 -108.413 287.071C-107.647 286.659 -106.251 285.968 -106.336 285.713C-108.017 280.806 -102.341 279.845 -100.71 276.762C-99.0777 273.679 -97.5954 270.472 -96.113 267.265C-94.5708 266.634 -92.957 266.001 -91.3434 265.368C-90.8335 265.544 -90.4115 265.401 -90.152 264.877C-88.6065 264.311 -86.9182 263.739 -85.3013 263.17C-83.1376 264.904 -81.1463 266.062 -77.6012 264.012C-73.8484 261.826 -69.098 260.96 -64.7211 259.785C-63.2372 259.413 -61.9709 258.985 -61.6045 257.748C-61.0534 255.925 -60.6805 254.818 -58.0463 255.955C-56 256.79 -52.9511 256.238 -51.3169 257.409C-47.3763 260.308 -45.5081 256.251 -42.5954 255.832C-41.1017 255.654 -41.356 253.471 -42.1878 252.596C-44.381 250.284 -47.0514 248.439 -49.2413 246.19C-51.3565 244.004 -52.7196 245.338 -54.9697 246.122C-59.3983 247.686 -64.2276 247.007 -68.9724 246.583C-69.3328 246.531 -69.6415 246.09 -70.0118 245.844C-69.671 245.511 -69.3401 244.984 -68.9828 244.973C-65.2063 244.655 -63.948 241.262 -61.156 239.881C-59.8314 239.192 -57.4561 242.272 -56.7982 239.737C-55.7806 235.836 -52.9301 234.195 -49.2775 232.85C-44.995 231.227 -40.7093 229.667 -36.5828 227.791C-32.0343 225.772 -27.5737 223.434 -23.1064 221.224C-21.9181 220.669 -20.5386 219.657 -19.3889 219.748C-14.5014 220.167 -11.0342 217.99 -8.54834 214.814C-5.92943 211.441 -2.42884 211.325 1.50371 211.26C3.86456 211.247 6.3814 211.486 8.07554 209.625C11.3957 205.971 16.4773 204.579 20.5644 201.931C22.3661 200.775 19.6382 200.608 18.6865 200.188C17.9557 199.89 17.3545 199.329 16.6885 198.9C17.0326 198.631 17.435 198.102 17.7922 198.09C23.3712 198.035 28.8001 196.438 34.4389 198.959C38.3204 200.7 42.4764 199.403 46.3655 197.084C52.8226 193.197 53.7998 192.714 55.651 186.916C57.1909 182.032 58.1486 181.162 63.0715 180.871C67.3515 180.601 71.7324 180.908 74.5426 177.077C75.0099 176.417 75.9672 175.547 76.7531 175.522C83.4005 175.367 86.5286 170.752 90.2742 167.019C93.0655 164.22 96.8117 161.905 97.6019 157.754C101.865 155.745 104.695 152.3 108.278 149.604C112.278 146.636 112.271 140.9 117.918 139.36C118.837 139.137 118.498 138.117 117.261 137.706C116.387 137.413 115.39 137.51 114.513 137.152C114.221 137.033 113.925 136.849 113.633 136.73C115.317 134.677 116.989 132.366 118.592 130.121C116.956 131.722 113.976 133.625 111.427 135.578C111.21 135.521 111.06 135.397 110.846 135.404C108.54 135.094 107.905 136.661 107.425 138.482C107.124 139.587 106.053 141.041 105.001 141.462C104.228 141.745 103.605 142.153 102.907 142.498C102.897 142.305 102.955 142.045 103.013 141.785C102.393 142.257 102.127 142.652 101.861 143.048C98.1866 145.36 95.5677 148.734 91.9675 151.108C89.3347 152.806 86.7611 155.663 83.9749 155.755C80.549 155.932 77.0049 153.793 73.5134 152.684C72.2045 152.276 70.8988 151.932 69.5866 151.46C69.1514 151.345 68.7746 150.971 68.4724 150.659C67.3286 149.278 67.9526 150.289 69.5079 149.916C73.0439 149.09 73.8125 147.324 73.5934 144.431C73.3809 141.667 74.9206 142.39 76.957 143.031C80.2277 144.019 78.4951 140.918 79.4461 139.92C80.3256 138.924 81.2445 138.701 81.4497 139.919C81.9455 144.027 84.3155 142.789 86.7667 141.741C89.0897 143.791 91.8793 143.764 94.7041 143.026C95.1295 142.948 95.6846 142.607 95.8111 142.281C95.9408 142.019 95.4859 141.518 95.1869 141.27C94.1408 140.402 93.1432 139.082 91.9156 138.864C86.4237 137.821 84.201 134.929 83.9484 129.975C84.9249 128.074 85.4013 126.189 84.8257 124.726C86.1379 125.198 87.3654 125.415 88.7031 124.984C88.5052 125.313 88.3721 125.511 88.304 125.578C88.648 125.308 88.9175 124.977 89.2616 124.708C89.8915 124.43 90.4434 124.025 91.0502 123.296C91.6571 122.567 93.0991 122.777 94.408 123.185C93.9407 123.845 93.402 124.507 92.9413 125.296C90.5345 124.408 85.7534 128.884 88.6242 129.047C88.9726 124.653 91.2739 129.089 92.2282 128.155C93.01 126.647 94.7338 125.366 96.3795 123.958C99.3709 125.084 102.352 126.017 105.399 126.818C110.258 128.076 114.827 127.861 117.897 123.506C120.765 119.415 124.999 118.245 130.111 118.849C131.478 118.998 132.965 118.691 134.404 118.837C135.05 118.88 135.618 118.797 136.19 118.778C136.08 119.426 135.973 120.138 135.727 120.92C136.544 120.12 137.148 119.326 137.68 118.535C138.106 118.457 138.528 118.314 138.878 118.173C136.351 123.348 131.973 128.713 127.242 134.154C123.451 138.404 119.52 142.723 115.863 146.775C112.056 150.704 108.375 154.305 105.834 157.805C107.054 156.476 104.391 161.784 101.605 163.294C106.535 163.131 114.945 155.442 121.673 154.06C124.659 150.868 127.207 148.915 129.759 148.444C130.833 147.055 131.56 145.871 131.725 144.899C136.805 146.278 149.687 126.647 151.238 130.398C152.636 126.936 152.978 123.831 155.886 119.095C154.833 118.098 153.788 120.066 152.713 118.62C154.306 116.182 155.204 114.155 154.785 112.944C151.326 118.085 153.574 120.074 151.085 124.603C149.714 122.972 147.241 124.987 147.132 127.053C148.035 129.344 149.501 124.397 150.482 125.396C149.547 126.716 151.336 126.721 149.707 128.451C148.111 125.216 144.911 135.441 141.021 136.342C140.128 135.663 139.728 134.838 140.163 133.535C145.248 128.018 141.404 129.82 142.247 126.699C143.827 124.004 145.253 125.311 146.805 123.455C144.638 121.657 147.412 117.119 150.037 113.874C151.526 109.378 151.647 104.733 151.998 100.403C152.2 100.139 152.404 99.9389 152.605 99.6744C154.91 97.1493 156.691 94.1903 158.621 91.3552C159.089 90.6953 158.614 89.8086 157.396 89.7843C154.604 89.7475 151.333 88.7597 149.21 90.6344C146.334 93.1784 142.214 95.1833 142.886 99.9306C143.01 100.958 142.231 102.53 141.264 103.207C139.881 104.155 138.423 105.04 137.041 105.988C136.888 105.8 136.729 105.483 136.637 105.099C136.316 105.819 135.985 106.345 135.654 106.872C133.437 108.299 131.145 109.663 128.857 111.092C124.933 109.933 120.945 108.904 117.083 107.549C115.696 107.015 114.465 106.733 113.127 107.164C112.777 107.304 112.235 107.902 112.235 107.902C116.689 112.46 110.656 113.433 108.91 115.682C107.638 117.399 105.355 117.539 103.205 117.481C101.993 114.75 107.867 113.46 106.277 110.354C106.55 110.088 106.89 109.754 107.16 109.423C109.857 107.594 113.132 104.457 115.602 100.959C118.279 97.3262 120.609 93.8979 122.099 92.2375C121.469 92.5161 120.516 90.6784 120.769 90.0255C123.681 88.1893 124.569 78.9435 125.503 83.2309C127.506 80.3935 126.44 79.1396 126.072 77.5405C123.491 84.4575 118.834 89.9605 118.443 94.9361C115.057 95.8856 113.133 100.267 111.011 103.56C110.145 104.813 109.415 105.933 108.6 106.797C108.502 106.285 108.112 105.653 107.872 105.146C107.791 104.955 107.07 104.85 106.862 104.986C106.024 105.4 105.417 106.129 104.573 106.415C103.307 106.843 101.755 107.281 100.825 105.894C100.127 104.821 99.7787 103.608 100.717 102.353C101.453 101.361 101.972 100.313 102.563 99.2625C103.985 99.0867 105.638 99.2255 106.605 98.5491C107.504 97.9394 107.858 96.4453 108.013 95.2801C108.21 93.5334 107.907 91.8032 108.393 90.1115C108.793 90.9361 108.696 91.8417 109.877 89.7403C109.838 88.9682 109.935 88.0626 110.175 87.1524C110.373 86.8236 110.428 86.4995 110.483 86.1755C112.094 81.2885 116.589 75.4041 117.116 71.713C115.588 74.0192 114.199 76.2564 112.735 78.4315C112.741 77.1423 112.676 75.8555 112.535 74.5066C112.519 74.1849 111.999 73.8153 111.635 73.6984C111.489 73.6388 110.931 73.915 110.798 74.1128C109.532 75.9591 109.699 77.8227 111.077 79.5819C111.229 79.7702 111.519 79.8251 111.811 79.9444C111.016 81.1952 110.146 82.384 109.348 83.5704C108.36 82.4429 107.233 81.3844 107.446 79.9594C107.657 78.4701 107.506 76.9283 107.285 75.3887C108.716 73.9881 110.07 72.461 110.842 70.7598C109.247 70.3613 112.116 67.6886 109.963 67.5663C109.453 67.3897 108.96 67.5349 108.473 67.8087C109.842 65.1855 109.5 62.6833 109.294 60.0476C109.081 57.2832 109.492 55.5294 113.083 54.3798C114.915 53.8038 116.281 52.5341 116.982 50.8353C118.066 51.0573 119.303 50.0497 120.527 48.7848C120.525 51.5563 123.507 52.4892 122.466 55.9394C123.251 54.4956 124.056 53.4378 125.046 53.2118C126.031 54.275 124.866 56.6981 126.334 57.4231C127.031 54.242 129.211 50.6897 132.265 47.4309C129.209 46.436 132.548 41.7499 133.483 40.4301C134.633 41.939 133.897 44.3479 132.07 46.4061C135.33 45.783 131.387 49.8446 133.819 49.8288C136.026 46.7913 133.396 35.9213 139.701 33.2642C136.129 40.4072 138.248 42.6576 137.559 47.3853C140.323 49.6787 142.427 48.8359 144.258 46.842L142.656 46.3148C143.208 44.492 144.055 44.2707 144.717 43.2176C144.967 43.9183 145.286 44.5523 145.88 43.566C147.202 44.2313 144.65 44.7022 144.391 46.6443C146.624 44.1215 148.489 39.9996 150.871 37.6007C152.634 30.0663 159.705 19.9721 159.601 13.7237C158.011 16.2253 157.036 22.3803 153.529 22.3671C151.251 19.7997 156.654 17.688 154.354 16.0881C152.317 19.6357 153.133 21.6068 150.311 22.4088C150.684 21.3008 149.541 21.3385 149.709 20.4306C151.549 17.2118 154.522 13.7623 156.071 14.678C154.129 14.4843 158.398 12.6033 156.362 11.9615C155.418 13.0883 154.041 12.747 152.836 12.9801C151.617 17.1451 149.813 19.6538 147.387 19.7982C146.611 14.4099 149.428 10.7078 149.65 6.64002C151.325 5.81137 152.848 4.7944 154.143 3.52711C155.302 2.39324 154.957 1.24448 154.394 0.0384388C153.913 -0.976895 152.098 -1.49707 153.091 -3.07662C154.411 -5.24706 155.208 -7.85143 156.977 -9.64993C161.207 -13.7209 163.974 -18.3882 165.923 -23.6731C165.92 -23.7374 165.992 -23.7398 166.063 -23.7421C166.284 -23.6205 166.508 -23.4346 166.797 -23.3797C166.189 -18.4613 167.724 -15.0316 165.115 -10.0473C165.606 -10.2568 165.8 -10.6499 166.141 -10.9834C165.584 -7.87138 165.102 -4.69738 164.623 -1.45901C168.449 0.606122 164.365 -5.12419 167.45 -4.96814C168.126 -2.92801 166.827 3.88216 164.262 4.09567C164.969 2.52554 165.673 0.891038 166.098 -0.605354C164.763 -0.110191 164.011 1.9771 163.245 3.80698L163.174 3.80933C163.177 3.87367 163.112 4.00468 163.116 4.06903C162.6 5.18169 162.081 6.23004 161.247 6.70871C161.637 7.34038 161.142 11.6749 162.187 9.70693C162.183 9.64258 162.245 9.44717 162.313 9.38048C161.07 15.8666 158.946 21.9306 157.38 27.7184C155.036 35.0787 153.247 42.0984 153.615 49.3048C150.329 50.8311 149.188 53.7046 149.053 56.6738C146.943 64.4131 142.101 70.5023 137.946 74.6352C141.286 76.9742 132.825 80.8626 132.866 84.4705C131.934 84.4368 131.392 85.0347 131.255 83.7502C131.074 91.4259 121.813 92.2469 119.222 100.389C121.637 97.2155 120.306 104.8 123.781 98.5627C123.195 96.9062 120.54 99.5719 121.65 97.4728C124.749 99.3041 128.048 92.428 132.285 91.3215C131.915 85.4686 137.551 82.318 141.237 76.0091C142.587 75.8357 146.731 75.699 146.018 72.9511C144.695 76.4751 144.371 71.5231 143.627 70.9676C145.171 67.5652 147.534 64.7803 149.608 61.9405C150.135 63.8567 150.86 65.444 151.549 66.3236C151.866 65.5397 152.116 64.8225 152.434 64.0386C153.08 64.0817 153.431 63.9413 154.273 65.0092C156.804 61.3165 155.186 60.4675 155.367 58.3991C158.573 60.9358 161.33 49.0504 164.645 46.6853C163.346 46.4703 163.222 45.4432 163.909 43.4869C164.585 44.1092 164.482 44.886 165.653 44.0095C171.292 26.8729 175.495 11.0726 179.848 -4.60362C179.128 -10.316 180.691 -25.9648 186.641 -24.3564C192.324 -43.428 192.651 -63.6764 193.572 -84.9112C190.422 -91.9614 191.404 -100.759 191.716 -107.279C191.622 -106.309 190.117 -109.16 190.74 -110.985C192.827 -117.757 195.831 -106.577 195.83 -100.97C195.51 -105.857 199.825 -101.23 201.303 -100.312C202.99 -89.669 202.933 -80.9662 204.484 -71.6075C204.255 -69.0863 202.696 -68.7771 202.629 -65.8746C204.986 -61.763 200.77 -57.4346 200.876 -52.5398C200.877 -49.7041 203.353 -47.4655 203.066 -44.6846C202.798 -41.5177 199.997 -38.9117 199.702 -36.2595C199.499 -34.6415 200.289 -31.7672 200.215 -30.4113C200.209 -30.54 199.101 -31.2124 199.16 -31.4722C198.804 -28.6246 200.318 -26.9988 200.157 -24.5444C200.108 -24.0916 198.251 -24.0303 198.189 -23.8349C196.496 -20.5565 198.736 -15.9255 198.14 -12.1677C195.833 -9.70687 196.096 -15.774 194.945 -11.6756C196.907 -11.0958 195.678 -7.12373 196.692 -5.48144C192.793 -3.35486 194.59 5.22233 191.566 3.45298C191.305 6.7486 191.18 11.3288 190.26 15.7418C189.337 20.0904 188.268 24.3795 187.198 27.2506C187.645 26.2046 188.447 26.5004 189.246 26.7319C186.883 33.7061 186.14 35.9864 185.99 40.0518C185.408 39.8776 185.583 39.0984 185.138 38.7908C183.404 44.0686 182.153 49.0081 180.294 53.2587C178.436 57.5093 176.622 61.2429 174.844 64.2663C175.189 65.415 175.881 66.359 175.882 67.7769C173.396 69.5346 173.721 70.2973 174.332 72.4685C172.472 73.8833 170.53 72.2716 170.395 75.2408C173.417 72.7564 170.611 79.4874 170.07 81.5033C168.975 81.0882 168.178 83.6926 166.969 82.4434C165.595 82.1664 167.611 79.5864 166.584 79.1046C163.95 84.9921 165.63 85.6457 168.069 87.1765C169.981 85.3733 171.729 81.7708 173.628 79.7102C171.262 76.8235 177.675 67.8466 179.95 66.1603C179.438 67.3373 180.581 67.2996 180.205 68.3433C179.484 68.2382 178.665 67.6206 178.075 68.6713C179.124 75.2107 174.512 80.1967 170.716 87.1537C173.946 85.9515 171.555 89.5751 173.679 90.5363C177.105 83.3337 180.381 76.0071 183.557 69.5217C181.106 71.9872 183.103 66.2496 182.973 65.0938C184.615 63.6217 188.601 58.9787 188.451 57.4369C187.86 58.4876 187.126 58.1251 186.324 57.8293C190.826 54.9094 191.583 48.6971 194.324 43.5151C191.905 49.3955 194.291 47.061 193.377 51.6027C195.609 47.662 197.219 45.5465 196.103 41.9095L197.844 42.3677C198.462 37.6424 200.823 32.0218 203.31 26.0747C204.517 23.0701 205.866 20.0609 206.855 16.9991C207.698 13.8776 208.255 10.7656 208.458 7.7297C209.172 7.70614 210.127 8.19027 210.5 7.08229C210.602 -3.55547 218.092 -18.0462 216.381 -23.5326C218.807 -23.677 218.781 -18.5845 216.888 -16.3952C221.178 -16.4723 219.217 -22.6594 219.014 -25.2307C219.021 -25.102 220.229 -25.2708 220.238 -25.0777C220.103 -29.1337 217.566 -31.1769 217.778 -35.4377C218.003 -40.859 221.373 -42.1303 221.08 -49.2747C218.028 -47.3694 221.635 -56.6404 220.279 -59.3671C219.623 -53.996 219.179 -57.075 219.46 -61.4025C219.597 -65.7252 219.808 -71.4039 221.887 -71.3435C221.697 -68.0503 223.227 -67.5207 223.627 -65.2781C223.417 -70.814 224.265 -68.1994 226.717 -69.2471C226.058 -73.7369 227.75 -74.2439 227.95 -77.3441C226.041 -76.8944 226.247 -72.8409 224.894 -71.3138C224.896 -72.6674 224.639 -73.4968 224.311 -74.3238C225.05 -76.6685 228.121 -78.1877 225.506 -80.3572C226.584 -80.2639 227.425 -80.6139 227.957 -81.4048C228.66 -73.2427 229.231 -67.6543 229.296 -62.178C228.928 -56.752 228.054 -51.4382 226.077 -43.8967C226.528 -39.2711 225.478 -34.596 224.571 -29.9256C223.668 -25.1909 223.05 -20.4655 223.517 -15.5182C222.371 -15.5449 222.395 -12.2587 221.079 -12.7954C220.011 -0.0632449 211.256 12.0845 212.6 22.9969C213.676 20.2544 214.041 16.182 215.769 16.3828C215.14 19.4972 212.287 33.7061 209.213 29.5537C208.763 31.9533 208.592 34.2147 207.184 37.4837C209.153 39.6101 209.003 32.4609 210.608 33.0526C209.405 37.5393 207.134 47.733 202.888 50.0644C200.123 58.9854 196.424 66.4548 193.262 73.1976C189.953 79.8808 186.53 85.7298 182.343 90.6372C184.936 92.3564 180.194 91.9972 179.432 93.8914C178.849 96.4887 182.595 94.1737 181.684 95.944C181.158 96.8636 181.532 97.1736 181.214 97.9575C179.683 101.617 177.984 100.578 176.443 102.626C177.32 104.402 174.241 108.564 172.271 112.045C167.773 110.84 166.514 118.422 164.187 121.915C159.762 129.15 152.913 136.595 146.923 144.011C140.708 151.241 135.279 158.445 130.741 163.493C139.109 156.385 139.627 152.501 147.359 146.961C150.081 141.393 154.452 135.899 159.106 130.332C163.539 124.643 167.813 118.637 171.161 112.726C172.418 113.522 173.635 112.129 174.928 112.215C175.071 113.628 173.761 115.992 173.836 117.472C177.121 114.527 179.418 103.431 186.134 99.0198C184.64 97.78 187.301 95.2431 188.486 93.2061C186.177 88.6417 193.051 74.6869 196.225 69.5551C197.186 70.1679 192.368 78.1254 194.744 75.5979C196.032 72.784 197.313 69.8415 199.064 70.4927C198.652 72.2464 195.829 75.8199 197.001 76.3613C199.224 73.6455 201.036 67.0761 203.902 69.9464C206.137 66.07 201.138 70.4887 202.929 66.3047C203.497 66.2216 203.971 65.6903 204.344 64.5824C207.546 64.219 206.339 67.2235 207.061 68.7465C210.517 64.9588 208.318 63.9357 207.503 63.3825C210.382 60.9028 208.524 66.5714 210.923 64.4943C213.808 60.7254 215.436 56.1601 216.181 53.9442C215.666 55.0569 214.965 55.3378 214.335 55.6164C215.324 53.9725 214.098 50.9837 216.086 50.6604C215.788 51.8303 215.012 53.4672 215.603 53.8344C219.134 48.6908 220.87 39.2236 224.742 36.5823C224.822 33.9372 222.379 37.9493 222.728 34.973C223.784 29.0087 226.496 30.2728 228.092 26.4819C227.409 25.731 224.682 26.9811 225.503 24.8271C227.043 21.3604 226.994 14.788 229.707 16.052C229.909 17.2055 228.392 23.9584 229.696 21.4663C229.963 15.4635 232.202 11.6515 230.19 8.68869C231.847 4.7025 233.191 10.0076 234.43 6.22861C234.426 4.74636 232.182 5.65823 232.516 3.77815C233.889 2.63718 238.862 -7.90344 235.308 -3.21022C236.806 -7.5134 236.906 -8.35459 238.309 -14.5237C237.436 -14.8172 236.023 -14.4483 236.094 -15.8685C238.736 -24.3988 239.248 -32.601 240.062 -40.4909C240.662 -48.3737 241.418 -56.0039 242.599 -63.7125C241.576 -64.1299 241.028 -62.2428 240.807 -63.7823C241.797 -69.6156 242.698 -74.4147 240.279 -78.3308C241.137 -78.3591 241.592 -77.8585 242.121 -77.2959C241.044 -81.5786 242.34 -87.0352 243.287 -90.9335C245.72 -88.1135 243.707 -82.6977 247.63 -81.538C247.256 -88.8731 242.234 -91.93 243.165 -100.339C241.735 -101.71 240.945 -97.5592 240.739 -100.195C241.435 -103.376 241.247 -104.272 239.849 -106.417C241.921 -106.486 241.763 -109.574 242.366 -111.785C239.235 -119.867 242.455 -128.288 237.866 -135.484C237.724 -139.668 237.559 -144.304 236.885 -149.115C235.996 -153.92 234.957 -158.848 233.711 -163.641C231.287 -173.293 228.392 -182.35 225.641 -188.575C226.936 -189.842 224.488 -194.338 226.992 -194.356C222.933 -199.571 225.442 -203.714 221.403 -207.126C221.755 -205.849 222.028 -204.698 220.95 -204.791C219.617 -207.067 219.676 -207.327 217.956 -211.588C218.796 -211.938 220.008 -212.043 218.971 -214.136C214.141 -216.232 214.967 -225.282 213.783 -230.271C212.571 -230.166 213.157 -228.51 212.842 -227.661C211.217 -231.475 207.365 -238.244 209.913 -240.197C211.674 -237.935 209.058 -235.915 211.601 -235.161C211.1 -236.563 212.308 -236.731 212.402 -237.701C204.334 -247.167 198.425 -261.99 195.492 -268.982C194.293 -271.457 191.773 -271.76 191.142 -272.899C189.562 -275.812 190.603 -279.262 186.649 -283.837C187.334 -283.022 185.937 -285.167 184.387 -287.5C183.837 -288.449 176.867 -297.436 177.475 -300.936C178.563 -302.068 182.688 -294.147 181.887 -297.215C179.648 -300.428 178.32 -301.222 177.288 -304.604C176.201 -303.472 174.866 -304.395 173.933 -305.846C172.861 -307.229 171.973 -309.198 171.989 -310.294C174.897 -308.005 177.607 -303.97 180.056 -303.664C175.844 -309.068 165.672 -317.691 170.792 -319.729C170.305 -319.455 169.015 -320.895 169.486 -321.49C173.423 -318.655 173.39 -320.717 176.947 -318.32C170.495 -322.748 167.349 -328.316 163.93 -333.617C160.442 -338.852 157.17 -344.093 149.738 -346.684C150.482 -347.546 151.609 -346.488 152.359 -347.221C150.078 -349.853 148.786 -348.521 146.16 -352.302C147.209 -352.788 146.36 -353.984 147.263 -354.53C145.157 -356.523 142.89 -358.897 141.064 -359.61C144.606 -356.118 145.081 -353.813 144.023 -352.103C139.711 -358.083 135.219 -359.16 132.871 -365.914C135.487 -362.327 136.518 -364.552 139.066 -360.898C139.413 -362.521 141.728 -363.435 138.716 -366.365C137.95 -365.953 137.294 -364.771 136.17 -365.765C138.625 -366.748 129.52 -378.307 124.728 -382.467C122.253 -381.87 125.596 -379.467 123.778 -378.633C123.281 -379.97 121.328 -381.775 119.232 -383.575C121.987 -382.892 121.321 -383.322 122.661 -385.106C120.37 -387.931 120.095 -384.893 118.055 -387.017C119.775 -388.362 114.519 -391.798 115.145 -393.559C110.033 -395.582 110.142 -397.648 111.691 -398.15C107.306 -399.939 106.441 -401.457 102.823 -402.24C102.218 -404.283 103.443 -402.712 104.459 -403.841C100.379 -406.671 100.96 -406.497 98.874 -409.522C97.1199 -410.237 95.6197 -410.188 93.7295 -410.77C92.9068 -412.87 90.279 -413.879 93.9882 -412.712C84.6799 -421.235 76.9265 -418.917 72.972 -423.491C69.6773 -420.74 66.5218 -425.083 63.9772 -428.673C61.9054 -428.605 65.0083 -425.291 62.5621 -426.951C60.7746 -429.728 58.6923 -431.27 54.5833 -433.262C54.8422 -435.204 57.2102 -433.67 58.2523 -434.285C55.5014 -434.903 53.071 -437.659 52.0773 -437.497C53.2795 -436.377 53.9067 -435.302 53.9559 -434.336C51.6625 -435.808 50.5391 -435.384 47.781 -437.549L48.787 -438.871C38.7057 -441.503 28.7866 -450.779 23.7011 -450.869C20.2646 -452.303 22.4333 -453.277 20.718 -454.638C20.2474 -454.042 20.4978 -453.342 20.8197 -452.643C17.8545 -453.255 7.85401 -462.721 12.7248 -457.017C8.01149 -459.633 7.66273 -462.264 3.99623 -462.594C6.35454 -461.254 5.6244 -460.134 3.13963 -461.148C5.00036 -461.145 4.79849 -462.298 1.94007 -463.622C0.452923 -463.315 -1.87902 -464.14 -4.05508 -464.713C-0.544583 -464.636 -8.29784 -467.925 -10.0288 -468.19C-9.28816 -467.699 -7.97278 -467.162 -8.23556 -466.702C-10.4247 -467.532 -16.5209 -469.2 -17.5546 -471.229C-16.5708 -471.583 -13.5237 -469.364 -12.8519 -470.224C-15.9155 -472.765 -17.8699 -471.798 -21.6636 -473.22C-21.7143 -477.021 -33.4332 -475.281 -32.7178 -479.494C-28.8585 -476.785 -24.6985 -476.6 -21.165 -476.072C-17.6998 -475.478 -14.7315 -474.802 -13.2847 -471.692C-11.6332 -474.389 -9.02687 -470.994 -3.87582 -469.617C-4.1984 -471.734 -1.60623 -470.015 -0.703748 -470.56C-5.35215 -473.307 -3.97104 -471.483 -5.40972 -471.629C-6.10519 -472.638 -9.16146 -473.632 -7.78189 -474.645C-6.53784 -474.106 -4.8422 -473.13 -4.36505 -473.597C-8.96102 -475.315 -10.8355 -476.993 -10.989 -478.599C-14.1037 -479.334 -16.384 -480.548 -19.4698 -482.122C-22.692 -483.563 -26.645 -485.302 -32.9038 -487.351C-35.3328 -487.271 -32.0778 -485.187 -35.9947 -486.218C-49.3423 -493.963 -64.1249 -494.764 -75.2138 -498.91C-78.1002 -497.977 -74.1726 -495.335 -79.6842 -496.765C-82.1952 -498.293 -81.0949 -499.167 -79.79 -500.241C-90.8577 -501.165 -96.5529 -506.198 -108.06 -508.719C-113.897 -505.304 -128.806 -512.804 -136.703 -510.481C-131.179 -510.212 -124.241 -508.894 -121.974 -506.52C-126.714 -505.461 -140.263 -507.335 -137.93 -510.699C-144.548 -509.965 -149.315 -515.028 -151.957 -512.105C-152.657 -516.014 -166.037 -517.377 -173.814 -516.927C-172.671 -516.965 -175.5 -517.709 -178.445 -517.934C-186.204 -518.516 -194.907 -519.389 -203.451 -519.946C-210.112 -520.048 -216.753 -519.765 -222.799 -519.05C-222.828 -519.629 -222.79 -520.275 -222.543 -521.056C-229.807 -520.365 -237 -519.677 -244.121 -518.991C-243.985 -519.124 -243.92 -519.255 -244.079 -519.572C-247.606 -518.554 -248.905 -518.769 -252.239 -518.208C-254.658 -517.934 -257.01 -517.728 -259.429 -517.455C-262.485 -518.45 -267.957 -519.107 -271.042 -519.263C-268.763 -519.467 -269.764 -520.852 -266.536 -520.701C-261.353 -520.098 -255.011 -520.63 -251.401 -522.811C-248.952 -522.505 -248.854 -521.993 -250.101 -521.178C-236.453 -522.982 -226.148 -521.582 -213.693 -524.313C-216.741 -522.343 -202.092 -522.762 -205.412 -524.715C-197.403 -523.432 -187.177 -522.158 -177.061 -521.654C-171.965 -521.371 -166.948 -521.214 -162.23 -521.305C-159.869 -521.318 -157.583 -521.394 -155.443 -521.529C-153.296 -521.535 -151.296 -521.601 -149.37 -521.729C-155.264 -522.244 -165.71 -524.993 -170.849 -523.341C-167.879 -525.437 -176.049 -524.265 -176.864 -523.4L-176.731 -525.016C-202.342 -527.652 -229.366 -527.147 -255.455 -526.545ZM-577.953 -361.741C-579.048 -363.574 -575.964 -364.836 -574.356 -365.598C-573.447 -364.597 -577.18 -362.024 -577.953 -361.741ZM180.479 65.305C177.326 65.2156 181.669 60.5608 180.863 60.2007C183.102 57.8066 182.004 62.9345 180.479 65.305ZM199.249 33.4272C196.036 32.1797 200.095 30.3701 200.904 26.6052C202.087 27.3396 199.572 31.3541 199.249 33.4272ZM189.704 25.8789C188.109 25.4804 189.75 21.1725 190.987 20.1649C192.228 20.6396 189.904 24.1966 189.704 25.8789ZM216.989 -42.5013C216.585 -43.3903 216.585 -44.8082 216.785 -46.4906C217.652 -46.3258 218.516 -46.2253 218.746 -47.3286C220.003 -46.5322 218.629 -41.2019 216.989 -42.5013ZM222.096 -74.2508C220.415 -73.5508 220.848 -76.272 219.705 -76.2343C217.962 -68.3138 219.665 -60.1847 214.863 -57.5127C216.662 -64.3394 214.806 -67.0496 213.609 -72.2951C214.186 -73.6032 215.228 -74.2176 215.412 -76.2217C216.848 -74.7222 216.323 -73.8025 216.022 -71.279C218.343 -72.0646 219.566 -74.7474 219.697 -79.1989C221.947 -79.982 222.351 -77.6751 222.096 -74.2508ZM-135.12 -489.265C-135.039 -490.492 -131.158 -488.751 -129.511 -488.741C-130.067 -488.4 -130.693 -488.057 -131.544 -487.9C-132.564 -488.253 -133.512 -488.609 -134.529 -488.897C-134.535 -489.026 -134.685 -489.15 -135.12 -489.265ZM-56.4452 -483.094C-52.2614 -481.041 -52.7912 -481.603 -47.8347 -479.833C-46.3953 -478.269 -48.2388 -476.533 -52.1335 -478.531C-47.5718 -480.293 -57.0054 -480.046 -56.4452 -483.094ZM181.483 -226.563C182.996 -226.355 184.239 -221.626 185.208 -219.467C181.879 -220.195 183.037 -222.747 181.483 -226.563ZM209.375 -176.373C210.228 -170.858 209.502 -168.256 209.603 -162.072C206.244 -164.797 207.374 -170.7 205.007 -176.422C206.511 -176.407 207.638 -175.349 209.375 -176.373ZM211.345 -146.146C213.457 -145.442 211.588 -142.802 211.335 -142.15C210 -141.654 210.336 -144.888 209.125 -144.784C208.591 -148.246 211.948 -142.75 211.345 -146.146ZM209.953 -158.023C211.476 -157.622 212.25 -155.07 213.773 -154.669C212.28 -153.073 215.564 -146.221 213.314 -145.437C214.153 -150.041 209.787 -152.862 209.953 -158.023ZM201.682 -150.403C202.7 -147.279 203.988 -144.485 205.039 -139.299C202.082 -136.946 200.71 -141.412 198.849 -147.023C197.132 -152.638 195.777 -159.554 194.782 -162.228C195.423 -166.503 197.65 -167.737 199.721 -162.198C199.215 -162.31 198.889 -163.072 198.324 -162.925C199.708 -156.848 200.664 -153.528 201.682 -150.403ZM212.095 -141.272C214.531 -134.199 215.452 -117.536 212.105 -121.422C214.061 -126.578 210.657 -132.975 212.095 -141.272ZM196.659 -167.51C195.189 -166.882 194.642 -169.184 193.982 -170.903C195.54 -171.212 197.35 -169.402 196.659 -167.51ZM177.928 -174.176C179.338 -167.584 180.393 -160.916 181.442 -155.794C182.557 -153.575 183.883 -157.035 183.21 -159.01C185.1 -158.428 183.91 -155.102 184.492 -153.51C183.434 -153.217 183.014 -154.428 181.891 -154.004C180.634 -153.383 182.695 -149.455 182.722 -147.522C178.423 -153.245 176.682 -159.311 175.393 -166.358C174.784 -169.883 174.161 -173.665 173.458 -177.637C172.54 -181.603 171.18 -185.812 169.515 -190.398C170.366 -190.555 171.217 -190.712 170.947 -191.798C172.425 -189.462 173.781 -186.736 175.007 -183.747C175.654 -182.286 176.236 -180.694 176.747 -179.099C177.118 -177.436 177.557 -175.839 177.928 -174.176ZM117.074 47.0296C116.983 46.6459 117.031 46.1932 117.226 45.8001C117.372 45.8597 117.512 45.7906 117.661 45.9146C117.438 47.1465 117.324 47.7303 117.126 48.0591C117.107 47.6731 117.162 47.349 117.074 47.0296ZM95.347 99.5005C95.6459 99.7484 95.9481 100.061 96.247 100.309C96.1172 100.571 95.9875 100.833 95.8577 101.095C95.6368 100.973 95.4159 100.852 95.195 100.73C94.9742 100.608 94.7533 100.487 94.5324 100.365C94.8051 100.098 95.0777 99.8316 95.347 99.5005ZM-580.53 -43.2032C-579.708 -42.5213 -579.224 -41.4416 -578.996 -39.7734C-578.982 -39.516 -578.969 -39.2587 -578.956 -39.0013C-579.206 -38.2841 -578.932 -37.133 -578.73 -35.9795C-580.206 -38.2511 -580.617 -40.6867 -580.53 -43.2032ZM-364.073 -499.631C-361.466 -500.426 -360.293 -499.885 -359.189 -499.276C-362.364 -498.398 -365.712 -498.094 -368.881 -497.088C-369.527 -497.131 -370.102 -497.176 -370.538 -497.291C-363.914 -499.314 -364.364 -496.914 -364.073 -499.631ZM-358.498 -501.168C-356.443 -501.558 -354.959 -501.929 -353.615 -502.232C-353.68 -502.101 -353.748 -502.034 -353.738 -501.841C-354.29 -501.436 -354.845 -501.095 -355.403 -500.819C-357.235 -500.243 -358.858 -499.803 -358.498 -501.168ZM-207.076 -502.617C-208.654 -502.694 -209.57 -502.406 -210.119 -501.937C-212.772 -502.043 -215.289 -502.282 -217.172 -502.736C-216.478 -503.145 -215.708 -503.493 -214.939 -503.84C-216.017 -503.934 -217.569 -503.496 -218.991 -503.32C-219.137 -503.38 -219.355 -503.437 -219.501 -503.497C-219.784 -503.423 -220.138 -503.347 -220.491 -503.271C-220.995 -503.319 -221.433 -503.497 -221.739 -503.874C-219.602 -504.073 -219.742 -505.422 -216.066 -504.899C-211.521 -501.375 -214.075 -503.74 -207.076 -502.617ZM-579.905 -151.631C-579.729 -150.992 -579.927 -150.663 -580.203 -150.461C-580.366 -150.842 -580.46 -151.29 -580.626 -151.736C-580.269 -151.747 -579.908 -151.695 -579.905 -151.631ZM-477.829 -417.7C-477.886 -416.022 -478.314 -414.59 -480.594 -414.386C-480.665 -414.384 -480.665 -414.384 -480.737 -414.381C-479.864 -415.506 -478.919 -416.633 -477.829 -417.7ZM-241.959 -500.436C-243.738 -500.248 -245.589 -500.058 -247.44 -499.868C-247.586 -499.928 -247.732 -499.988 -247.875 -499.983C-249.252 -500.324 -250.451 -501.38 -251.646 -502.372C-249.789 -502.433 -247.86 -502.497 -246.006 -502.623C-241.869 -502.888 -237.881 -503.277 -234.124 -503.981C-234.01 -503.147 -234.172 -502.111 -231.821 -502.317C-231.65 -503.161 -232.283 -504.364 -230.786 -504.478C-227.409 -504.203 -224.661 -503.649 -222.469 -502.754C-227.914 -501.479 -234.756 -500.931 -241.959 -500.436ZM-258.063 -501.903C-257.777 -501.912 -257.42 -501.924 -257.138 -501.998C-257.488 -501.857 -257.774 -501.848 -258.063 -501.903ZM-450.875 -442.049C-452.242 -440.779 -454.255 -440.971 -455.691 -442.47C-455.769 -442.597 -455.847 -442.723 -455.857 -442.916C-453.52 -444.798 -450.819 -446.562 -447.758 -448.275C-447.14 -445.975 -448.003 -444.657 -450.875 -442.049ZM-459.071 -439.974C-459.547 -438.089 -460.842 -436.822 -462.881 -436.11C-461.732 -437.437 -460.509 -438.702 -459.071 -439.974ZM-209.115 -501.906C-207.768 -502.144 -206.264 -502.129 -204.751 -501.921C-206.18 -501.874 -207.68 -501.824 -209.115 -501.906ZM-314.826 -510.601C-315.696 -510.83 -316.644 -511.185 -317.525 -511.607C-315.599 -511.735 -313.943 -511.532 -313.264 -510.845C-313.761 -510.765 -314.329 -510.681 -314.826 -510.601ZM-325.976 -508.944C-326.334 -508.932 -326.834 -508.916 -327.123 -508.97C-326.642 -509.373 -325.873 -509.721 -324.889 -510.075C-325.158 -509.744 -325.496 -509.346 -325.976 -508.944ZM-338.097 -505.257C-334.742 -504.014 -330.911 -506.074 -331.389 -507.025C-329.882 -506.946 -329.362 -506.576 -329.268 -506.128C-329.888 -505.657 -330.508 -505.185 -331.131 -504.778C-331.553 -504.635 -331.978 -504.557 -332.404 -504.478C-333.092 -503.94 -333.706 -503.339 -334.248 -502.741C-334.874 -502.399 -335.429 -502.058 -335.78 -501.918C-336.971 -501.427 -338.68 -502.66 -338.535 -504.018C-338.48 -504.342 -338.428 -504.731 -338.301 -505.057C-338.237 -505.188 -338.165 -505.19 -338.097 -505.257ZM-370.355 -496.523C-370.423 -496.457 -370.566 -496.452 -370.706 -496.383C-371.196 -496.173 -371.553 -496.162 -371.985 -496.212C-371.42 -496.359 -370.852 -496.443 -370.355 -496.523ZM-579.348 -49.4939C-579.387 -48.8481 -579.503 -48.3287 -579.763 -47.8045C-579.646 -48.324 -579.533 -48.9078 -579.348 -49.4939ZM183.842 -205.565C186.374 -206.422 184.561 -202.688 186.335 -200.169C184.503 -201.011 184.255 -203.065 183.842 -205.565ZM60.8582 -412.651C62.8061 -413.746 64.3604 -409.93 68.3331 -407.806C67.58 -407.136 68.6359 -406.075 67.7368 -405.466C65.1765 -407.959 62.4019 -410.446 60.8582 -412.651ZM53.3869 -417.431C54.0036 -417.967 54.5454 -418.565 53.574 -419.371C54.6548 -420.631 59.5053 -416.731 60.1523 -415.27C58.6881 -414.513 56.356 -415.338 53.3869 -417.431ZM-140.709 -490.82C-140.576 -491.018 -140.515 -491.214 -140.382 -491.411C-138.706 -490.822 -138.55 -490.569 -138.748 -490.241C-139.472 -490.41 -140.057 -490.649 -140.709 -490.82ZM-186.75 -501.161C-187.675 -501.066 -188.529 -500.973 -189.309 -500.819C-189.682 -501.129 -189.984 -501.441 -190.144 -501.758C-189.069 -501.729 -187.913 -501.509 -186.75 -501.161ZM-194.139 -502.915C-195.558 -502.675 -197.405 -502.421 -199.399 -502.226C-201.059 -502.494 -202.579 -502.83 -204.764 -503.596C-199.679 -503.506 -198.013 -503.11 -194.308 -503.425C-194.23 -503.299 -194.149 -503.108 -194.139 -502.915ZM-293.962 -512.642C-296.775 -513.065 -299.571 -513.166 -302.977 -512.603C-301.774 -515.672 -293.707 -514.649 -290.77 -513.199C-291.835 -513.035 -292.897 -512.806 -293.962 -512.642ZM-310.994 -511.242C-309.757 -512.25 -307.286 -512.912 -304.38 -513.459C-302.925 -511.573 -309.107 -510.725 -310.994 -511.242ZM-367.253 -501.653L-366.502 -499.551C-368.392 -498.715 -371.669 -499.832 -372.077 -498.013C-375.987 -497.498 -371.217 -499.395 -371.529 -499.901C-373.043 -500.108 -373.864 -499.372 -374.961 -498.434C-375.338 -498.808 -375.712 -499.118 -376.085 -499.428C-373.797 -500.857 -370.917 -501.919 -367.253 -501.653ZM-386.472 -496.83C-386.508 -496.12 -388.56 -495.665 -390.183 -495.225C-390.186 -495.289 -390.19 -495.354 -390.193 -495.418C-390.291 -495.93 -390.742 -496.367 -391.259 -496.672C-388.113 -498.129 -388.32 -496.575 -386.472 -496.83ZM-397.311 -487.643C-397.463 -487.831 -397.418 -488.348 -397.217 -488.612C-395.955 -490.523 -394.302 -491.802 -391.753 -492.337C-390.549 -492.57 -390.166 -493.485 -390.147 -494.517C-389.228 -494.741 -388.235 -494.902 -386.949 -494.945C-386.78 -494.435 -385.786 -494.597 -385.409 -494.222C-390.555 -492.699 -388.638 -490.184 -386.298 -493.42C-385.591 -493.572 -384.883 -493.724 -384.175 -493.876C-384.158 -492.137 -384.069 -490.399 -384.195 -488.655C-384.24 -488.138 -385.629 -487.319 -386.279 -487.426C-388.013 -487.756 -389.8 -489.115 -391.219 -488.875C-392.849 -488.563 -393.968 -486.657 -396.131 -486.972C-396.56 -486.958 -397.005 -487.266 -397.311 -487.643ZM-434.165 -467.994C-434.489 -467.339 -434.742 -466.686 -434.352 -466.054C-435.404 -465.633 -436.238 -465.154 -437.004 -464.742C-437.712 -464.59 -438.495 -464.5 -439.209 -464.476C-437.69 -465.557 -435.823 -466.844 -434.165 -467.994ZM-537.186 -394.473C-536.705 -394.876 -536.157 -395.345 -535.676 -395.748C-535.53 -395.688 -535.312 -395.631 -535.163 -395.507C-535.548 -393.238 -538.779 -392.036 -541.853 -390.581C-540.273 -391.858 -538.692 -393.135 -537.186 -394.473ZM-548.499 -356.719C-548.366 -356.916 -548.087 -357.054 -547.808 -357.193C-547.999 -356.735 -548.191 -356.278 -548.31 -355.823C-548.606 -356.006 -548.765 -356.323 -548.499 -356.719ZM-577.207 -28.5535C-576.707 -28.57 -576.207 -28.5865 -575.781 -28.6649C-575.834 -29.6944 -576.51 -30.3166 -577.387 -30.6744C-577.475 -32.4117 -577.492 -34.1513 -577.513 -35.9553C-575.908 -35.3637 -574.842 -34.1098 -573.851 -32.9179C-572.246 -30.9084 -573.028 -29.4002 -575.492 -28.61C-575.17 -27.9117 -574.917 -27.1466 -574.523 -26.4506C-572.421 -23.1041 -572.43 -21.8792 -574.91 -19.9927C-574.978 -19.926 -575.118 -19.857 -575.186 -19.7903C-576.405 -22.6504 -576.91 -25.5341 -577.207 -28.5535ZM-571.495 -3.54145C-572.288 -6.48001 -572.719 -9.3017 -572.85 -11.8754C-572.174 -11.2532 -571.703 -10.4309 -571.705 -9.07731C-571.663 -8.24084 -571.604 -7.08271 -571.012 -6.71551C-566.793 -3.95436 -569.914 0.7891 -567.178 3.92141C-565.277 6.1145 -566.14 7.432 -567.442 8.57062C-569.224 4.5045 -570.509 0.357553 -571.495 -3.54145ZM14.3043 191.438C14.2525 191.827 12.9116 192.193 12.1939 192.152C11.8335 192.1 11.4665 191.918 11.0994 191.737C10.7324 191.556 10.4334 191.308 10.0663 191.127C10.7643 190.781 11.3811 190.246 12.0889 190.093C13.2221 189.863 14.586 189.946 14.3043 191.438ZM49.6389 178.478C50.2884 178.586 50.7565 179.344 51.351 179.775C51.007 180.044 50.7473 180.569 50.3901 180.58C49.1107 180.751 47.8249 180.794 46.5423 180.901C46.5455 180.965 46.5488 181.029 46.5521 181.094C46.4807 181.096 46.3377 181.101 46.2663 181.103C46.0101 181.692 45.7538 182.28 45.4228 182.807C45.3579 182.938 44.4908 182.773 44.4875 182.709C44.201 181.3 45.198 181.203 46.2663 181.103C46.263 181.039 46.3312 180.972 46.328 180.908C46.3994 180.905 46.4708 180.903 46.5423 180.901C46.4471 179.035 47.4694 178.034 49.6389 178.478ZM57.1005 170.434C56.7047 171.091 56.3089 171.749 55.9163 172.471C55.4516 171.777 54.7011 171.093 54.7365 170.383C54.7004 169.675 55.4534 169.005 55.9174 168.281C56.2392 168.98 56.7072 169.738 57.1005 170.434ZM62.9789 165.019C64.0537 165.048 65.1285 165.077 64.9182 166.566C64.9215 166.631 64.074 166.852 63.996 166.726C63.6125 166.223 63.2974 165.653 62.9789 165.019C62.9074 165.021 62.7644 165.026 62.693 165.029C62.6897 164.964 62.6864 164.9 62.6831 164.836C60.9719 164.956 59.267 165.206 57.844 163.964C57.0187 163.218 56.8908 160.708 57.6799 160.747C58.3976 160.788 59.2648 160.952 59.7846 161.322C61.1198 162.245 62.7342 163.029 62.6864 164.9C62.7579 164.897 62.8293 164.895 62.9007 164.893C62.9007 164.893 62.9756 164.955 62.9789 165.019ZM65.1037 154.766C69.7678 156.417 73.4619 160.097 78.9112 160.304C79.197 160.295 79.7044 161.825 79.5229 162.475C79.3414 163.126 78.319 164.126 77.8156 164.079C72.3951 163.033 67.2859 161.074 62.7023 158.196C62.332 157.951 62.6203 156.588 62.7952 155.809C62.7952 155.809 62.7952 155.809 62.792 155.744C62.9965 155.544 63.2009 155.344 63.4021 155.08C63.5417 155.011 63.6099 154.944 63.6748 154.813C64.2496 154.858 64.7367 154.585 65.1037 154.766ZM98.6448 115.053C99.7394 115.468 100.201 116.098 99.8929 117.075C98.951 116.848 98.1388 116.359 97.8588 115.079C97.3901 112.903 98.8413 111.889 100.998 112.075C101.283 112.066 101.423 111.997 101.637 111.99C100.888 112.724 99.93 113.593 98.6448 115.053ZM102.254 98.8215C102.325 98.8191 102.472 98.8788 102.543 98.8764L102.339 99.0765C102.335 99.0122 102.332 98.9478 102.254 98.8215C102.036 98.7642 101.819 98.707 101.601 98.6497C101.734 98.4519 101.796 98.2565 101.932 98.1232C102.088 98.3758 102.173 98.6308 102.254 98.8215ZM173.121 9.41079C169.455 17.5236 165.78 25.4434 164.333 34.9654C162.919 38.1057 160.859 41.2029 158.74 44.5597C158.471 44.8909 158.204 45.2864 158.01 45.6795C158.292 44.1878 158.573 42.6961 158.858 41.2688C159.535 37.7017 160.219 34.2632 161.188 30.8154C162.011 27.3079 163.113 23.6623 164.845 19.7381C161.299 13.3455 173.618 3.72266 172.374 -2.42363C168.141 0.165152 171.181 -10.3762 171.662 -16.386C173.64 -15.4845 176.105 -16.2747 179.585 -16.7762C178.999 -7.21812 176.062 1.12849 173.121 9.41079ZM189.414 -111.715C187.959 -113.6 190.686 -114.85 189.866 -118.304C189.297 -118.22 189.567 -117.134 189.464 -116.357C188.597 -116.522 188.966 -119.112 187.969 -119.014C186.739 -117.878 188.41 -113.164 188.324 -110.647C185.13 -114.345 184.862 -123.81 182.775 -126.835C183.911 -128.419 185.944 -127.842 186.402 -127.277C188.35 -128.372 186.226 -129.334 187.138 -131.104C186.009 -133.58 186.292 -128.047 184.388 -128.886C183.456 -135.945 184.013 -137.639 181.713 -140.657C182.059 -143.698 182.784 -140.692 181.145 -146.181C185.168 -147.28 183.44 -140.456 185.052 -138.318C187.45 -141.813 180.386 -149.83 184.5 -150.546C185.005 -147.662 185.874 -144.661 186.749 -141.532C187.41 -138.396 188.149 -135.133 188.819 -131.804C190.086 -125.207 190.94 -118.275 189.414 -111.715ZM214.025 -114.653C215.928 -113.814 214.839 -116.936 214.822 -118.675C215.986 -115.491 216.541 -110.225 217.053 -104.376C217.141 -98.4499 217.115 -91.9394 217.839 -86.1627C212.984 -92.9633 216.7 -104.3 214.025 -114.653ZM219.633 -83.2571C220.348 -88.8879 219.85 -90.225 220.117 -96.2278C217.33 -90.5286 217.983 -108.596 219.337 -110.124C221.291 -105.483 221.216 -99.9377 221.124 -94.7142C221.104 -89.493 221.065 -84.6578 222.667 -81.2948C220.781 -80.3947 220.799 -82.8444 219.633 -83.2571ZM225.152 -80.2811C223.038 -81.0492 224.472 -83.8034 225.111 -85.3069C226.553 -85.0966 225.48 -80.8719 225.152 -80.2811ZM225.048 -148.274L223.133 -147.953C223.298 -147.507 223.393 -147.059 223.559 -146.613C224.099 -144.44 224.5 -142.197 224.978 -139.828C225.861 -135.152 226.685 -130.217 227.298 -125.21C228.456 -115.129 229.572 -104.467 228.009 -94.4256C228.208 -93.3365 229.259 -93.7579 229.254 -92.4687C229.089 -90.0786 228.538 -88.2558 228.062 -86.371C226.191 -86.5671 227.02 -91.3638 226.791 -94.4499C225.931 -94.486 225.07 -94.522 224.986 -93.3591C224.202 -103.13 223.371 -120.827 218.278 -135.096C218.539 -138.391 218.879 -141.561 220.212 -143.474C219.35 -146.345 218.398 -142.576 217.228 -143.053C216.529 -145.543 218.768 -147.938 216.777 -149.096C216.697 -152.059 217.429 -150.343 218.926 -150.456C216.959 -155.354 215.421 -158.848 215.111 -162.125C212.931 -162.762 214.917 -158.896 215.016 -156.966C212.228 -159.71 211.442 -166.709 212.074 -169.759C214.158 -170.988 217.064 -165.928 215.986 -171.628C219.122 -167.671 217.595 -155.504 220.684 -153.866C220.498 -161.723 215.257 -174.698 217.878 -179.425C223.121 -169.221 221.753 -159.573 225.048 -148.274ZM208.2 -193.8C207.135 -193.636 207.347 -192.29 206.204 -192.252C204.299 -195.928 206.962 -195.629 205.057 -199.304C206.311 -198.572 207.118 -195.376 208.2 -193.8ZM195.849 -219.883C198.528 -208.047 202.479 -197.93 205.814 -185.859C206.866 -186.28 205.072 -189.186 205.675 -189.979C207.52 -190.298 208.754 -184.344 206.909 -184.026C208.752 -181.573 209.33 -181.463 211.469 -183.016C210.413 -178.47 208.887 -177.517 207.451 -179.016C205.94 -180.578 204.658 -184.66 203.012 -190.278C202.422 -189.227 203.18 -186.996 203.486 -185.202C201.814 -184.309 201.552 -189.456 200.116 -189.538C199.833 -190.882 201.343 -190.738 202.112 -191.086C198.357 -200.179 197.824 -200.806 194.026 -210.735C195.717 -212.66 192.351 -215.513 193.934 -218.144C192.524 -220.546 193.673 -214.848 191.684 -217.36C189.762 -224.193 191.486 -224.057 187.352 -230.752C185.728 -230.312 190.794 -225.001 187.832 -225.548C186.742 -230.088 184.72 -233.244 182.13 -236.316C183.305 -237.128 184.315 -236.968 185.342 -236.487C184.357 -238.968 183.129 -239.185 181.811 -238.368C179.009 -242.787 180.145 -244.372 180.534 -246.576C186.852 -243.368 190.852 -225.26 195.849 -219.883ZM164.573 -308.374C161.436 -308.141 160.944 -312.185 157.971 -314.343C159.786 -315.241 162.406 -310.171 164.573 -308.374ZM156.407 -336.592C160.922 -335.065 155.629 -335.019 158.121 -332.459C157.27 -332.302 156.019 -334.388 154.953 -335.641C155.719 -336.053 156.417 -336.399 155.718 -337.471C156.426 -337.623 156.686 -336.73 156.407 -336.592ZM147.43 -333.009L144.824 -336.403L146.275 -337.418C147.296 -335.647 148.901 -333.637 147.43 -333.009ZM143.651 -336.944C142.401 -336.194 140.328 -338.962 138.359 -341.088L139.739 -342.1C141.626 -340.165 143.368 -338.288 143.651 -336.944ZM140.798 -335.368C145.217 -330.1 149.357 -324.693 152.141 -322.014C149.624 -322.253 145.53 -326.759 141.033 -332.153C136.468 -337.481 131.012 -343.424 127.091 -347.355C130.988 -345.292 136.031 -340.431 140.798 -335.368ZM129.772 -373.353C128.51 -371.442 128.598 -371.123 125.928 -371.55C125.684 -373.54 126.523 -376.726 129.772 -373.353ZM124.614 -376.276C124.66 -375.375 125.943 -374.064 124.826 -373.512C124.42 -374.465 124.014 -375.419 123.312 -375.138C122.549 -376.079 123.607 -376.372 122.551 -377.433C123.344 -377.33 124.136 -377.227 124.681 -377.761C125.516 -376.822 125.888 -375.158 124.614 -376.276ZM115.572 -390.802C114.728 -390.516 113.129 -392.397 111.788 -393.448C111.46 -392.857 112.948 -391.746 113.929 -390.748C113.93 -389.33 110.015 -391.714 112.218 -389.209C110.78 -389.355 110.209 -393.525 110.066 -394.938C113.201 -392.399 113.326 -394.144 115.572 -390.802ZM79.1175 -408.226L80.2696 -409.488L84.7366 -406.091C83.88 -404.645 81.0176 -407.451 79.1175 -408.226ZM86.1807 -414.259C83.3617 -414.811 85.5902 -413.209 88.1177 -411.358C85.4423 -410.497 82.809 -415.824 80.2684 -417.931C81.2974 -418.803 84.3422 -415.23 86.1807 -414.259ZM70.3742 -416.896C75.5541 -416.358 80.3316 -415.291 85.4044 -408.433C82.0106 -409.03 77.0388 -415.311 72.8671 -412.918C65.9631 -419.2 59.2585 -422.975 56.4346 -426.426C61.153 -426.517 68.3815 -420.891 70.3742 -416.896ZM45.7074 -434.709C50.3919 -431.254 51.5654 -429.295 56.2131 -427.966L54.4638 -425.781C49.8893 -429.884 42.0778 -432.914 36.6814 -437.698C40.1106 -437.811 42.5385 -433.702 45.7074 -434.709ZM-30.9912 -475.104C-30.9708 -473.3 -33.5302 -474.376 -33.5065 -472.507C-34.7316 -474.078 -40.8764 -475.293 -38.9613 -477.032C-41.3313 -475.794 -45.9608 -479.573 -49.6929 -481.19C-42.7354 -478.068 -35.932 -477.97 -30.9912 -475.104ZM-10.8807 -476.476C-11.4129 -475.685 -10.7956 -474.803 -9.53838 -474.007C-10.275 -473.016 -12.6983 -474.225 -15.2709 -475.558C-12.9166 -475.7 -15.554 -476.902 -13.1997 -477.044C-15.0481 -478.208 -19.9037 -479.401 -17.9591 -480.561C-16.9582 -479.176 -13.6677 -477.802 -10.8807 -476.476ZM-23.8893 -481.783C-27.523 -481.47 -28.3195 -483.055 -31.5581 -484.817C-27.9211 -485.066 -27.1279 -483.545 -23.8893 -481.783ZM-67.0875 -484.097C-68.2856 -483.735 -70.2276 -483.929 -72.9202 -484.807C-72.6417 -486.362 -68.3061 -485.539 -67.0875 -484.097ZM-83.3302 -482.659C-86.3989 -482.493 -87.4744 -483.94 -92.2322 -484.621C-91.5999 -486.253 -84.6785 -483.839 -83.3302 -482.659ZM-107.899 -487.326C-106.406 -488.923 -103.537 -485.988 -99.975 -486.299C-99.6458 -484.054 -105.308 -487.025 -107.899 -487.326ZM-88.8111 -487.698C-93.0681 -486.978 -95.1078 -487.684 -101.658 -488.435C-99.8171 -488.818 -93.7701 -488.115 -99.9607 -490.231C-97.7665 -492.108 -92.9324 -488.529 -88.8111 -487.698ZM-138.789 -493.849C-127.607 -492.091 -123.441 -493.195 -118.073 -493.178C-115.478 -492.813 -117.195 -491.403 -115.165 -490.89C-116.385 -493.75 -107.924 -492.031 -102.283 -490.863C-103.195 -489.093 -103.145 -488.128 -104.285 -488.026C-105.263 -488.96 -109.232 -489.603 -111.005 -489.287C-108.188 -487.381 -114.745 -488.261 -115.108 -486.96C-117.297 -487.79 -117.252 -488.307 -115.775 -488.807C-124.241 -489.237 -134.144 -492.584 -142.532 -492.887C-142.276 -493.476 -140.357 -493.732 -142.257 -494.508C-140.928 -492.296 -146.07 -494.897 -145.855 -493.487C-144.604 -492.819 -144.938 -492.357 -145.925 -492.066C-148.537 -492.754 -151.148 -493.441 -153.824 -493.997C-154.712 -495.966 -148.988 -493.19 -149.06 -494.606C-154.033 -495.279 -161.731 -498.892 -163.49 -496.901C-158.573 -495.903 -156.504 -496.036 -154.113 -494.052C-154.259 -494.112 -154.402 -494.107 -154.548 -494.167C-158.881 -494.926 -163.346 -495.488 -167.948 -495.916C-167.991 -496.753 -168.455 -497.446 -169.134 -498.133C-169.063 -498.135 -169.063 -498.135 -168.988 -498.073C-166.638 -499.697 -163.478 -499.479 -160.23 -498.942C-156.98 -498.34 -153.706 -497.288 -150.793 -497.706C-148.152 -496.44 -148.402 -495.723 -147.791 -494.97C-145.648 -496.458 -135.201 -495.063 -132.95 -494.428C-132.715 -492.631 -138.058 -494.968 -138.789 -493.849ZM-82.6323 -495.636C-86.5073 -497.249 -88.4485 -496.024 -90.4759 -497.891C-91.1105 -500.513 -80.5809 -497.508 -82.6323 -495.636ZM-92.9114 -497.94C-94.7408 -500.135 -99.4798 -501.848 -99.6078 -504.357C-95.2943 -502.566 -91.1236 -500.77 -92.9114 -497.94ZM-287.858 -513.617C-287.858 -513.617 -287.786 -513.619 -287.715 -513.622C-287.715 -513.622 -287.786 -513.619 -287.858 -513.617ZM-292.983 -515.897C-294.792 -516.288 -288.08 -516.574 -283.752 -517.297C-284.841 -514.812 -290.158 -515.217 -292.983 -515.897Z" fill="#333333"/>
<path fill-rule="evenodd" clip-rule="evenodd" d="M248.393 -64.4682C249.868 -64.5817 250.311 -62.7976 250.599 -61.2654C249.342 -61.0307 249.988 -56.6194 248.887 -56.0687C249.297 -54.926 251.025 -55.6261 250.389 -52.8423C248.21 -34.5242 246.995 -20.8638 243.62 -8.09504C242.11 -1.68445 240.593 4.59786 239.026 11.2673C238.205 14.5712 237.391 18.0033 236.513 21.566C235.35 25.074 234.194 28.7103 232.91 32.6079C236.884 33.1177 231.245 35.9399 232.404 37.957C236.079 36.7422 236.238 34.2956 238.891 29.5815C237.342 28.2198 236.826 31.9632 235.562 32.0696C236.057 30.704 236.009 29.7419 235.967 28.9081C238.041 30.8947 239.317 24.0422 240.135 27.6769C242.009 20.0978 242.779 11.5918 244.499 2.34747C245.322 -2.3056 246.209 -7.08929 247.221 -12.1984C247.728 -14.7208 248.302 -17.3098 248.871 -20.027C249.298 -22.7395 249.725 -25.452 250.217 -28.2952C249.157 -28.3241 248.757 -29.2744 248.693 -30.5571C250.473 -32.9936 249.612 -33.2861 250.154 -37.9298C251.774 -36.5704 252.311 -37.1023 253.375 -39.7719C252.728 -40.0073 251.686 -39.7155 251.691 -41.0006C252.261 -46.4804 252.248 -53.7396 251.646 -60.0797C251.077 -65.7784 249.631 -70.677 248.376 -73.2049C248.899 -71.2308 248.059 -66.8984 248.393 -64.4682Z" fill="#333333"/>
<path fill-rule="evenodd" clip-rule="evenodd" d="M155.726 73.2373C157.104 69.5255 159.956 65.3791 159.386 69.5787C160.992 67.5317 162.778 64.8356 161.629 63.2656C164.269 60.5412 168.733 60.072 169.59 55.9273C170.602 56.2154 171.269 56.708 171.457 57.6022C172.37 54.549 171.225 53.0432 171.382 50.5296C172.367 48.889 173.877 50.5757 174.651 47.5914C173.516 46.2783 174.619 41.3536 176.307 36.7311C176.605 36.9785 176.973 37.2236 177.261 37.2784C178.047 37.3167 178.803 36.7772 179.646 36.5564C179.126 36.1233 178.592 35.4335 178.094 35.4499C177.668 35.464 177.173 35.5447 176.756 35.7515C178.845 30.6012 181.542 26.2027 182.842 27.9606C183.419 25.3044 184.423 22.6341 185.501 20.0257L185.505 20.09C185.592 20.4087 186.106 20.7133 186.407 21.0249C187.005 21.584 187.846 21.2989 188.075 20.1979C188.594 17.801 187.674 15.1299 190.069 13.1855C188.251 11.0588 188.939 9.17083 190.104 6.88112C190.75 5.57339 189.99 4.63374 188.47 4.16943C188.389 3.97915 188.383 3.85071 188.302 3.66043C188.237 3.7912 188.173 3.92197 188.108 4.05273C187.604 3.94078 187.106 3.95725 186.463 3.9142C186.737 2.29716 187.143 0.482792 185.992 0.263571C185.767 1.42878 185.547 2.72241 185.325 3.95182C184.055 4.18678 182.303 4.75924 182.834 5.38489C183.59 6.26033 184.066 7.2094 184.4 8.16316C184.232 9.06917 184.061 9.91099 183.822 10.8193C182.722 14.3933 181.486 18.1003 180.172 21.6813C177.616 28.8409 175.117 35.7413 173.255 41.1414C172.724 40.5157 172.259 39.7593 172.139 38.7985C172.926 36.071 175.935 35.0068 174.001 33.3985C173.075 36.1948 171.789 37.5237 170.671 39.3616C172.094 40.7295 171.585 43.3191 170.646 45.8586C169.564 48.4028 168.198 50.9565 168.496 52.6189C168.285 51.2752 166.908 50.8061 165.671 51.6832C164.506 55.3879 161.689 60.2406 158.804 62.3299C158.067 61.8398 158.499 60.5391 157.901 59.98C155.473 65.4631 156.657 67.7394 155.726 73.2373Z" fill="#333333"/>
<path fill-rule="evenodd" clip-rule="evenodd" d="M202.355 47.5195C202.732 42.3643 203.075 37.9173 206.727 32.9107C205.934 32.6799 205.312 33.0219 204.693 33.4281C205.25 31.8026 205.06 30.8446 204.463 30.2858C203.277 36.3035 201.787 39.1172 200.736 45.0018C202.827 38.6327 202.351 46.0411 202.355 47.5195Z" fill="#333333"/>
<path fill-rule="evenodd" clip-rule="evenodd" d="M195.384 57.0646C194.68 58.6993 193.956 59.9479 193.132 60.6197C194.357 62.1907 198.904 57.3352 196.677 58.5689C195.093 61.1995 196.374 56.8385 195.384 57.0646Z" fill="#333333"/>
<path fill-rule="evenodd" clip-rule="evenodd" d="M200.088 78.2116C203.569 80.6083 205.721 69.525 208.912 69.0334L207.751 68.6852C208.006 68.0972 208.191 67.5115 207.62 67.5304C206.233 69.7657 205.038 72.9607 202.666 76.9029C201.725 76.6763 200.764 76.0641 200.088 78.2116Z" fill="#333333"/>
<path fill-rule="evenodd" clip-rule="evenodd" d="M228.887 108.979C228.977 107.947 227.82 104.77 226.646 106.867C227.632 109.47 225.563 110.761 226.31 112.858C227.29 111.154 228.107 110.419 229.024 110.26C228.209 113.824 227.275 113.662 225.182 117.268C226.07 117.946 227.002 116.693 227.952 117.176C225.193 120.29 225.776 123.357 224.909 125.894C226.463 122.884 227.91 123.351 229.536 120.339C228.92 116.63 231.357 114.17 233.778 107.209C232.561 107.057 233.328 105.359 233.069 104.468C231.711 107.149 230.246 107.712 228.887 108.979Z" fill="#333333"/>
<path fill-rule="evenodd" clip-rule="evenodd" d="M114.209 86.5625C114.669 84.3543 117.63 83.4182 116.521 82.7452C114.258 86.1094 113.59 84.2609 112.027 84.5059C112.617 86.228 112.061 86.5688 114.209 86.5625Z" fill="#333333"/>
<path fill-rule="evenodd" clip-rule="evenodd" d="M245.054 25.1617C243.455 27.337 241.947 29.8951 240.588 32.577C237.873 38.0049 235.84 44.2464 235.928 50.1605C240.924 50.3812 241.501 54.7355 240.519 60.6207C237.752 59.4259 236.307 66.0338 233.848 66.6939C236.505 67.1206 233.844 70.8102 235.331 70.6324C234.277 70.9245 233.253 71.7945 232.252 73.1139C235.203 73.7238 231.176 79.9669 229.886 83.9971C232.055 84.6328 231.993 83.4129 233.293 85.1707C237.214 81.0535 242.25 70.8538 244.29 67.5706C244.615 57.1408 257.483 45.5244 260.152 32.1872C261.834 23.2561 257.275 17.6186 249.261 19.6844C247.979 21.0774 246.578 22.9246 245.054 25.1617Z" fill="#333333"/>
</g>
</g>
</svg>
