<svg width="222" height="242" viewBox="0 0 222 242" fill="none" xmlns="http://www.w3.org/2000/svg">
<path d="M136.172 228.331C140.108 229.567 143.302 231.481 145.402 234.797C146.54 236.601 147.979 238.263 149.214 240.02C149.903 240.996 150.856 241.492 152.091 241.532C153.618 241.579 155.153 241.595 156.688 241.54C159.468 241.445 163.236 238.736 163.43 235.333C163.642 231.513 161.506 228.921 158.559 226.614C157.077 225.456 155.559 224.345 154.041 223.227C151.006 220.982 147.529 219.54 143.69 218.8C134.91 217.099 126.421 214.499 117.994 211.79C115.417 210.963 113.035 209.632 110.388 208.45C111.164 205.725 110.405 203.448 109.673 201.101C108.94 198.738 108.764 196.233 108.226 193.815C107.873 192.232 107.44 190.633 106.787 189.129C105.87 187.002 104.246 185.348 101.855 184.379C101.325 184.167 100.813 183.907 100.328 183.623C95.2893 180.63 89.9241 180.567 84.4354 182.339C80.4645 183.623 76.476 184.899 73.2816 187.553C71.0226 189.428 69.0195 191.468 67.3958 193.808C65.4015 196.69 63.6455 199.652 62.1807 202.803C58.2627 211.238 60.0276 225.117 71.5873 232.096C74.067 233.592 76.4936 235.144 78.9291 236.696C81.9735 238.633 85.3355 239.066 88.9358 238.421C91.0625 238.043 92.7391 237.082 93.595 235.238C94.6274 233.017 96.304 231.292 98.3336 229.733C100.999 227.685 103.196 225.243 104.846 222.447C105.252 221.762 105.781 221.124 106.24 220.462C107.193 219.084 108.129 217.705 109.232 216.106C110.114 216.532 111.235 216.957 112.223 217.548C119.688 222.053 127.674 225.66 136.172 228.331ZM105.922 217.225C104.978 218.54 103.981 219.824 102.966 221.092C101.307 223.148 99.7455 225.275 97.9012 227.181C95.6599 229.504 93.2597 231.686 91.9272 234.585C91.3537 235.829 90.1977 236.491 88.777 236.782C85.5826 237.436 82.5735 237.223 79.8204 235.412C77.9408 234.175 76.0171 232.986 74.0052 231.938C62.2513 225.81 59.6923 212.963 63.1514 203.535C64.625 199.526 67.1929 196.044 69.6813 192.524C70.299 191.657 71.1285 190.893 71.9491 190.153C75.0288 187.396 78.6291 185.458 82.7412 184.025C86.615 182.67 90.3654 182.087 94.4686 182.812C96.6482 183.198 98.2983 184.316 100.16 185.167C103.743 186.797 105.499 189.46 106.196 192.839C106.99 196.667 107.264 200.581 108.755 204.299C109.135 205.244 109.232 206.316 108.552 207.245C106.964 206.717 105.481 206.221 103.963 205.717C103.902 205.355 103.84 205.04 103.805 204.717C103.434 201.141 102.94 197.612 100.681 194.469C100.01 193.532 99.8249 192.311 99.3484 191.027C102.04 191.964 102.913 194.012 104.255 195.729C104.149 194.083 103.522 192.665 102.199 191.515C101.687 191.074 101.051 190.665 100.734 190.121C99.7896 188.514 98.2454 187.719 96.357 187.546C93.8244 187.309 91.2742 187.254 88.724 187.136C86.5709 187.042 84.7796 187.766 83.1206 188.979C81.6029 190.09 80.0057 191.129 78.3291 192.027C75.6024 193.485 73.6257 195.43 72.3109 198.029C71.4109 199.794 70.1931 201.432 69.1342 203.133C68.8518 203.582 68.4989 204.055 68.4459 204.543C68.2783 206.197 67.6253 207.529 66.0016 208.466C65.1986 208.931 64.8103 209.702 65.331 210.506C66.4869 212.302 66.4605 214.232 66.4164 216.201C66.3458 219.107 67.2193 221.777 69.3813 223.975C71.1991 225.818 73.0698 227.661 75.523 228.914C77.8438 230.095 79.7939 231.576 80.9675 233.829C81.3293 234.522 82.1853 235.286 82.9883 235.483C86.4297 236.333 90.1271 235.467 91.1419 231.899C91.8478 229.402 93.3303 227.401 95.2716 225.574C96.2158 224.684 97.1247 223.715 97.8395 222.675C99.6308 220.092 101.572 217.555 101.793 214.373C101.802 214.287 101.987 214.208 102.278 213.972C103.725 214.358 105.287 214.775 106.981 215.224C106.54 216.075 106.311 216.697 105.922 217.225ZM92.042 199.904C92.6155 201.188 93.1979 202.511 93.7627 203.787C93.3744 204.008 93.2597 204.086 93.1362 204.142C90.7448 205.244 90.4536 205.788 91.0271 208.111C91.0889 208.356 91.1595 208.647 91.0801 208.868C90.4624 210.498 89.8006 212.113 89.1388 213.783C89.5623 214.011 90.0124 214.247 90.4712 214.499C87.4975 217.8 87.4975 217.8 87.7004 218.406C88.6358 217.823 89.6506 217.264 90.5595 216.602C91.2213 216.122 91.7507 215.508 92.3243 214.94C92.6508 214.617 92.8714 214.106 93.2685 213.964C95.7217 213.066 98.1924 213.152 100.849 213.885C100.399 215.468 100.372 217.138 99.4984 218.296C97.7071 220.651 96.41 223.313 93.9921 225.298C92.0331 226.905 90.7095 228.929 90.1006 231.292C89.9241 231.978 89.5976 232.663 89.1741 233.254C88.2828 234.506 87.0474 234.805 85.4061 234.537C83.906 234.285 83.1736 233.395 82.6 232.3C81.2146 229.662 78.8938 228.244 75.6906 227.779C74.9671 227.677 74.2699 227.196 73.6522 226.771C72.9639 226.298 72.4168 225.668 71.7638 225.149C68.6665 222.723 67.1488 219.643 67.1488 216.012C67.1488 213.972 67.087 211.979 65.8957 210.057C66.2487 209.687 66.3987 209.435 66.6193 209.301C68.3577 208.253 69.3813 206.883 69.4872 204.945C69.5137 204.425 69.8931 203.756 70.352 203.456C72.1874 202.259 73.3346 200.613 74.367 198.88C75.7436 196.564 77.7202 194.831 80.2881 193.563C81.5588 192.941 82.7942 192.201 83.8531 191.326C87.7004 188.152 92.2449 188.522 96.86 189.145C97.7954 189.271 98.316 189.783 98.4748 190.72C98.8543 192.917 99.7808 194.942 100.946 196.935C102.49 199.581 102.41 202.551 102.702 205.717C101.087 205.473 99.6661 205.465 98.4307 205.016C96.8688 204.449 95.3069 203.811 95.201 201.794C95.0775 199.951 94.1068 199.573 92.042 199.904ZM99.7279 211.908C97.4159 211.632 95.0775 211.561 92.8802 212.585C92.492 212.767 91.9625 212.688 91.5037 212.727C90.983 211.624 91.6007 210.821 91.8302 209.962C92.0243 209.23 92.2626 208.395 92.042 207.725C91.7508 206.851 91.8037 206.213 92.5184 205.622C93.2597 205.008 94.0715 204.811 95.1216 205.118C96.8512 205.615 98.616 206.024 100.39 206.347C103.205 206.859 105.79 207.773 108.279 209.088C111.72 210.9 115.214 212.703 118.903 214.066C123.2 215.649 127.701 216.807 132.157 218.036C135.281 218.902 138.431 219.855 141.643 220.304C148.049 221.194 152.841 224.495 157.359 228.228C158.612 229.26 159.53 230.67 160.35 232.033C161.224 233.49 161.127 235.081 160.35 237.113C157.588 229.693 152.726 224.794 144.281 223.494C144.811 223.707 145.332 223.912 145.861 224.117C150.088 225.787 153.847 227.921 155.797 231.899C156.53 233.387 157.253 234.876 157.915 236.388C158.118 236.861 158.136 237.405 158.188 237.917C158.277 238.696 157.862 239.224 156.997 239.263C155.4 239.334 153.803 239.326 152.206 239.287C151.897 239.279 151.509 239.043 151.314 238.807C149.894 237.082 148.367 235.412 147.158 233.576C144.864 230.071 141.519 227.897 137.284 226.606C129.598 224.258 122.3 221.1 115.559 217.091C110.67 214.192 105.42 212.601 99.7279 211.908Z" fill="#333333"/>
<path d="M154.61 159.518C160.566 157.234 166.619 155.06 171.526 151.09C171.738 150.917 171.993 150.767 172.17 150.562C174.482 147.924 177.738 146.246 180.447 144.025C185.177 140.165 188.839 135.739 189.527 129.792C189.633 128.831 189.933 127.87 190.277 126.956C191.31 124.255 191.301 121.632 189.915 118.993C189.368 117.945 189.068 116.78 188.777 115.645C188.486 114.503 188.962 113.495 189.668 112.526C191.848 109.557 194.539 107.036 197.566 104.752C198.554 104.004 199.402 103.098 200.266 102.232C202.305 100.199 202.243 97.8128 201.466 95.4262C200.963 93.8745 200.16 92.3937 199.437 90.905C198.951 89.8889 198.343 88.9201 197.84 87.9119C196.948 86.1397 196.039 85.8246 194.354 87.1242C192.377 88.6444 190.48 90.2906 188.804 92.0708C186.465 94.5519 184.594 97.3953 181.382 99.4354C178.832 98.2854 176.52 96.7179 173.502 96.6864C170.617 96.6549 168.102 97.608 165.64 98.821C165.181 98.6162 164.66 98.4902 164.308 98.1988C162.419 96.6313 160.142 96.206 157.654 96.143C153.851 96.0484 150.083 96.0642 146.403 97.1748C144.779 97.6631 143.253 98.246 142.123 99.4118C141.594 99.9552 141.038 100.176 140.244 100.192C137.252 100.262 134.746 101.389 132.576 103.137C131.384 104.098 130.281 105.138 129.152 106.146C125.807 109.139 122.392 112.069 119.172 115.165C117.76 116.528 116.71 118.197 115.607 119.796C114.848 120.899 114.574 122.112 115.651 123.168C114.671 124.318 113.515 125.231 112.977 126.373C111.662 129.185 110.559 132.092 110.877 135.25C110.921 135.707 110.709 136.274 110.4 136.66C108.494 139.086 107.753 141.859 107.382 144.718C107.012 147.577 107.974 148.963 110.912 150.058C111.177 150.153 111.433 150.255 111.662 150.342C112.059 154.351 112.615 154.816 117.618 155.304C117.46 157.384 118.96 158.589 120.698 159.628C123.495 161.306 126.425 162.519 129.937 161.621C130.387 161.503 130.934 161.629 131.42 161.708C136.882 162.59 142.15 162.369 146.941 159.502C147.118 159.392 147.312 159.29 147.506 159.211C148.036 158.998 148.583 158.793 149.192 158.565C150.753 160.4 152.774 160.227 154.61 159.518ZM162.64 154.335C160.425 155.32 158.219 156.312 155.96 157.202C154.777 157.667 153.507 157.966 152.254 158.258C151.945 158.329 151.539 158.085 150.709 157.864C153.401 156.115 155.695 154.556 158.06 153.091C162.613 150.279 167.802 148.325 171.976 144.82C172.064 145.955 172.143 146.9 172.223 148.003C169.558 150.555 166.311 152.705 162.64 154.335ZM141.232 154.461C141.991 153.075 149.995 145.978 151.742 145.08C153.71 146.222 155.801 146.159 157.998 145.624C159.604 145.238 161.263 145.017 162.904 144.734C164.766 144.411 166.628 144.104 168.49 143.789C169.011 143.702 169.54 143.639 170.07 143.568C169.223 144.584 168.27 145.364 167.193 145.994C165.428 147.034 163.549 147.916 161.81 148.979C158.872 150.775 155.81 152.476 153.162 154.579C151.654 155.777 150.092 156.651 148.3 157.265C146.227 157.966 144.047 158.171 141.85 157.699C141.188 157.557 140.358 157.533 140.164 156.533C144.118 156.234 147.488 154.761 147.947 153.099C145.53 152.681 143.765 155.107 141.232 154.461ZM138.567 146.026C136.37 146.703 134.217 147.506 132.011 148.176C131.058 148.467 130.025 148.664 129.028 148.68C127.44 148.704 126.716 147.664 127.537 146.474C128.005 145.797 128.781 145.206 129.558 144.813C131.481 143.844 133.264 142.765 134.667 141.221C134.932 140.929 135.302 140.725 135.505 140.567C140.729 141.701 145.715 141.496 150.577 140.055C150.762 141.079 150.921 142.016 151.08 142.891C149.342 144.301 147.638 145.703 145.9 147.073C145.309 147.538 144.7 148.097 143.985 148.31C140.941 149.208 137.808 149.712 134.517 149.609C137.014 148.176 140.173 147.774 142.141 145.474C140.879 145.49 139.697 145.679 138.567 146.026ZM122.375 139.181C123.328 137.763 124.59 137.149 126.301 136.983C128.322 136.786 130.334 136.471 132.32 136.069C133.334 135.865 134.287 135.384 135.135 135.085C134.773 136.621 134.429 138.094 133.987 139.992C132.205 141.008 130.008 142.26 127.81 143.536C127.387 143.781 126.919 144.033 126.619 144.379C125.649 145.514 124.245 145.443 123.045 145.159C122.189 144.954 121.228 144.222 120.839 143.505C120.319 142.552 121.254 141.788 122.145 141.3C123.134 140.756 124.201 140.339 125.251 139.89C125.922 139.598 126.619 139.354 127.299 139.086C127.237 138.913 127.175 138.732 127.113 138.558C125.596 138.755 124.069 138.96 122.375 139.181ZM123.725 131.084C126.672 128.24 128.313 124.806 129.434 121.057C132.302 121.435 134.49 120.773 136.449 119.56C137.879 118.678 139.176 117.615 140.57 116.685C141.073 116.354 141.673 115.984 142.256 115.937C143.447 115.834 144.665 115.945 146.015 115.968C145.785 117.725 144.744 119.45 145.759 121.104C144.629 121.986 143.526 122.671 142.679 123.546C141.55 124.711 140.129 125.909 139.688 127.303C138.841 129.997 136.952 131.54 134.384 132.832C131.967 134.045 129.425 134.699 126.699 134.801C125.807 134.833 124.898 134.557 123.981 134.415C124.519 132.588 124.651 132.588 126.125 131.407C127.96 129.941 129.672 128.35 131.402 126.783C131.702 126.515 131.817 126.09 132.02 125.735C128.816 127.051 127.06 129.941 123.725 131.084ZM133.617 111.684C136.644 108.155 139.635 105.28 144.25 104.327C144.709 104.232 145.265 104.224 145.688 104.374C147.771 105.091 149.906 105.343 152.121 105.217C153.392 105.146 154.671 105.185 155.942 105.17C155.66 105.571 155.342 105.689 155.051 105.847C151.689 107.627 148.724 109.769 146.897 112.944C146.271 114.031 145.335 114.362 143.526 114.109C143.941 113.078 145.609 112.81 145.724 111.258C145.044 111.628 144.603 111.825 144.224 112.093C141.956 113.724 139.767 115.449 137.429 116.977C135.982 117.922 134.332 118.662 132.69 119.332C131.781 119.702 130.625 119.899 129.884 118.993C129.222 118.182 129.664 117.307 130.246 116.646C131.278 115.48 132.275 114.204 133.599 113.361C136.079 111.786 138.788 110.486 141.391 109.061C141.876 108.793 142.335 108.493 142.803 108.202C139.273 108.202 136.723 109.998 133.617 111.684ZM138.823 134.423C139.794 132.36 140.65 130.666 141.373 128.933C142.556 126.082 144.903 124.081 147.144 122.191C152.289 123.443 157.398 123.073 162.34 123.624C159.684 127.492 156.992 131.351 154.389 135.242C153.736 136.219 152.977 136.975 151.848 137.558C147.744 139.677 143.35 140.118 138.761 139.567C138.02 139.48 137.314 139.141 136.317 138.842C137.367 137.731 138.117 136.778 139.053 135.999C140.05 135.156 141.232 134.486 142.317 133.714C143.279 133.029 144.585 132.698 145.265 131.47C142.75 131.769 141.1 133.234 138.823 134.423ZM179.45 100.318C180.191 100.767 181.1 101.003 181.753 101.271C182.53 100.593 183.094 100.113 183.641 99.6244C184.921 98.4823 186.271 97.3796 187.453 96.1587C188.548 95.0324 189.43 93.7406 190.48 92.567C191.883 90.9917 193.454 89.566 195.325 88.353C196.039 89.6684 196.648 90.7002 197.178 91.7714C197.857 93.142 198.554 94.5046 199.075 95.9224C199.852 98.0255 199.631 100.066 197.998 101.822C196.931 102.972 195.828 104.122 194.557 105.075C192.351 106.729 190.577 108.675 188.945 110.77C186.65 113.708 185.962 116.677 187.665 120.111C188.433 121.655 188.733 123.522 188.671 125.223C188.592 127.342 187.912 129.453 187.48 131.564C187.065 133.588 185.98 135.337 184.806 137.086C182.662 140.268 179.662 142.709 176.52 145.057C175.691 145.671 174.8 146.199 173.282 146.096C174.032 144.773 174.588 143.576 175.355 142.497C176.361 141.071 177.526 139.732 178.629 138.362C180.015 136.644 180.941 134.793 181.277 132.659C181.674 130.083 182.309 127.539 182.891 124.995C183.438 122.593 183.121 120.293 182.08 118.001C181.682 118.851 181.479 119.718 181.391 120.592C181.268 121.758 181.356 122.939 181.144 124.089C180.562 127.232 179.882 130.359 179.22 133.486C178.832 135.313 178.109 137.156 176.52 138.283C174.376 139.803 172.09 141.3 169.293 141.827C164.881 142.654 160.451 143.458 156.03 144.238C155.474 144.332 154.857 144.308 154.301 144.19C153.886 144.104 153.533 143.796 152.951 143.473C156.533 141.756 160.39 140.811 162.41 137.527C158.881 138.385 156.454 141.237 152.386 142.127C153.145 140.402 153.815 139.173 154.769 138.007C156.904 135.376 159.181 132.793 160.919 129.949C162.578 127.232 164.749 124.893 166.743 122.419C167.034 122.057 167.422 121.703 167.864 121.506C170.59 120.308 172.77 118.52 174.932 116.662C176.591 115.236 178.656 114.669 180.994 115.173C181.453 115.275 181.956 115.228 182.583 115.252C182 113.881 180.624 113.873 179.618 113.613C178.506 113.322 177.235 113.535 176.035 113.527C175.841 112.518 176.829 111.416 175.673 110.289C175.488 111.014 175.453 111.613 175.197 112.117C173.229 116 170.105 118.891 165.763 120.702C163.893 121.482 161.951 122.088 159.86 121.892C157.292 121.655 154.724 121.317 152.015 121.009C153.824 119.229 155.598 117.481 157.372 115.732C157.266 115.63 157.151 115.535 157.045 115.433C156.401 115.929 155.722 116.394 155.13 116.929C153.957 118.001 152.889 119.158 151.689 120.198C150.542 121.198 149.28 121.096 148.044 120.041C147.25 119.363 147.268 118.205 148.371 117.292C149.315 116.512 150.436 115.834 151.609 115.37C152.995 114.818 154.513 114.527 155.977 114.125C156.71 113.928 157.442 113.755 158.175 113.574C154.716 113.243 151.601 114.086 148.503 115.456C148.68 114.456 148.794 113.416 149.386 112.692C152.324 109.116 156.322 106.824 161.025 105.485C161.493 105.351 162.031 105.366 162.534 105.398C163.549 105.461 164.563 105.579 165.578 105.666C167.069 105.792 168.42 106.138 169.505 107.162C170.079 107.698 170.784 108.186 172.011 107.895C171.455 106.934 170.979 106.099 170.387 105.067C171.967 105.138 173.414 105.217 174.861 105.256C176.388 105.296 177.923 105.406 179.441 105.296C181.303 105.162 183.077 104.65 184.559 103.437C183.633 103.271 182.724 103.256 181.824 103.319C180.368 103.421 178.894 103.807 177.482 103.673C173.917 103.342 170.379 102.964 166.84 103.76C166.637 103.807 166.408 103.752 166.187 103.728C164.943 103.61 164.202 103.035 164.078 101.798C164.634 101.475 165.181 101.176 165.711 100.845C170.114 98.0018 174.676 97.4268 179.45 100.318ZM146.588 99.1439C151.142 97.7262 155.819 98.1594 160.451 98.5926C161.493 98.6871 162.454 99.459 163.337 99.8686C162.693 101.011 162.181 101.909 161.634 102.885C149.033 104.209 148.706 103.374 143.279 101.397C143.985 100.018 145.265 99.5535 146.588 99.1439ZM121.316 115.976C124.034 113.535 126.699 111.053 129.399 108.612C130.978 107.178 132.549 105.729 134.226 104.382C136.043 102.925 138.144 101.932 140.729 101.877C140.95 102.31 141.153 102.696 141.267 102.909C139.697 103.838 138.082 104.532 136.846 105.579C134.367 107.674 132.152 109.974 130.528 112.739C129.399 114.661 128.472 116.851 126.16 117.969C123.61 119.198 120.945 120.253 118.324 121.372C118.086 121.474 117.795 121.458 117.23 121.537C118.068 119.127 119.613 117.512 121.316 115.976ZM113.665 133.943C114.451 132.029 115.668 130.343 117.274 128.878C117.918 128.295 118.483 127.649 119.392 126.712C116.321 127.169 115.43 129.327 113.859 130.579C113.727 127.571 115.898 125.578 117.927 123.538C118.201 123.27 118.607 123.081 118.986 122.923C121.889 121.742 124.801 120.584 127.855 119.363C128.022 119.607 128.269 119.978 128.402 120.174C127.828 121.183 127.202 121.994 126.893 122.9C126.187 124.987 125.057 126.846 123.654 128.61C122.948 129.508 122.189 130.453 121.845 131.477C120.848 134.471 118.192 135.345 115.236 135.802C113.656 136.054 113.1 135.321 113.665 133.943ZM109.474 145.514C109.694 143.663 110.135 141.819 110.691 140.024C111 139.015 111.733 138.102 112.271 137.149C112.465 137.204 112.668 137.267 112.862 137.322C112.421 138.905 111.997 140.496 111.53 142.071C110.93 144.072 110.427 146.065 111.883 148.089C109.783 147.459 109.288 147.081 109.474 145.514ZM113.365 146.396C113.877 143.064 116.868 141.063 119.269 138.291C116.418 138.495 115.324 140.165 113.683 141.827C114 140.441 114.124 139.409 114.503 138.448C114.68 137.983 115.245 137.511 115.765 137.314C117.618 136.613 119.533 136.022 121.616 135.329C121.845 135.518 122.251 135.865 122.648 136.203C121.351 137.818 120.019 139.212 119.03 140.78C117.618 143.025 118.633 145.324 121.298 146.38C121.907 146.616 122.542 146.797 123.284 147.049C118.995 149.231 116.295 149.026 113.365 146.396ZM114.098 149.286C115.095 149.57 116.101 149.854 117.001 150.106C116.992 151.145 116.983 152.098 116.974 153.177C113.471 153.886 112.668 151.783 114.098 149.286ZM121.66 154.012C120.68 153.823 119.11 152.272 119.101 151.563C119.092 150.759 120.089 149.838 121.404 149.515C122.657 149.208 123.928 148.956 125.384 148.641C126.099 150.263 128.013 150.586 130.069 150.657C130.122 150.838 130.184 151.027 130.237 151.208C127.881 152.161 125.543 153.146 123.169 154.052C122.745 154.209 122.145 154.107 121.66 154.012ZM126.116 154.422C127.81 153.422 129.505 152.429 131.234 151.484C131.57 151.303 132.073 151.216 132.452 151.279C134.87 151.697 137.235 151.295 139.608 151.019C140.058 150.964 140.509 150.988 141.312 150.972C139.688 152.413 138.805 153.839 139.132 155.564C136.299 156.942 130.131 157.825 127.307 157.305C126.169 157.092 125.313 156.58 124.872 155.359C125.34 154.989 125.701 154.666 126.116 154.422ZM121.422 157.675C120.601 157.242 119.48 156.777 119.613 155.54C120.716 155.659 121.713 155.769 122.675 155.871C124.184 158.423 124.307 158.494 129.019 159.558C125.746 160.408 123.628 158.841 121.422 157.675ZM142.194 159.762C138.276 160.101 134.817 161.054 131.384 159.361C133.626 158.943 135.867 158.518 138.117 158.132C138.364 158.085 138.682 158.195 138.929 158.305C139.873 158.707 140.8 159.14 142.194 159.762Z" fill="#333333"/>
<path d="M221.347 140.733C221.621 141.292 221.832 141.859 221.991 142.434L221.991 139.331C220.844 138.307 219.344 137.842 217.429 137.889C216.282 137.921 215.126 137.7 213.988 137.535C211.949 137.243 210.308 137.842 209.496 139.527C209.055 140.433 208.923 141.528 208.931 142.536C208.94 143.631 209.249 144.726 209.461 145.821C209.628 146.703 209.461 147.404 208.711 148.113C206.761 149.972 205.658 152.209 205.499 154.784C205.455 155.564 205.34 156.344 205.225 157.116C204.572 161.566 204.669 166.056 204.007 170.53C202.878 178.178 200.998 185.629 198.466 192.97L201.254 192.97C201.457 192.372 201.66 191.765 201.863 191.166C204.069 184.692 205.269 178.028 206.222 171.286C206.884 166.56 206.655 161.802 207.44 157.108C207.608 156.076 207.696 155.036 207.881 154.013C208.278 151.736 208.411 151.524 211.032 148.641C212.549 149.917 214.067 149.413 215.541 148.743C216.582 148.27 217.588 148.144 218.691 148.507C219.026 148.617 219.406 148.712 219.759 148.688C220.623 148.625 221.356 148.719 222 148.932L222 146.585C221.965 146.727 221.938 146.868 221.894 147.01C220.676 146.853 219.759 146.735 218.965 146.632C218.903 145.017 218.85 143.545 218.806 142.079C218.647 142.064 218.479 142.048 218.32 142.032C218.223 142.395 218.073 142.757 218.038 143.127C217.773 146.049 217.782 146.049 214.341 146.994C214.349 144.23 213.626 141.654 212.073 139.236C212.399 139.141 212.629 139.008 212.788 139.055C214.879 139.709 217.006 139.898 219.212 139.709C220.076 139.622 220.932 139.882 221.347 140.733ZM212.479 147.475C212.32 147.514 212.17 147.554 212.011 147.593C211.799 147.317 211.385 147.026 211.402 146.758C211.535 144.584 210.061 142.418 211.296 140.236C212.585 142.584 212.779 145.01 212.479 147.475Z" fill="#333333"/>
<path d="M213.088 172.176C214.005 179.107 214.897 186.023 213.749 192.962L214.958 192.962C215.32 190.67 215.506 188.354 215.347 186.031C215.003 181.1 214.429 176.177 213.988 171.246C213.599 166.969 213.238 162.684 212.902 158.399C212.832 157.533 212.938 156.659 212.964 155.792C212.814 155.784 212.655 155.769 212.505 155.761C212.355 157.084 212.011 158.415 212.082 159.723C212.32 163.881 212.541 168.048 213.088 172.176Z" fill="#333333"/>
<path d="M187.929 59.6663C190.815 61.4149 193.868 61.667 197.089 60.5643C197.998 60.2571 198.827 59.8475 199.101 58.9259C199.621 57.1695 200.839 56.0589 202.692 55.2712C204.554 54.4757 205.984 53.0185 205.913 51.1517C205.851 49.4661 205.948 47.6073 204.898 46.5124C205.013 45.2128 205.428 44.1652 205.084 43.4011C204.501 42.1015 203.583 40.857 202.525 39.8173C201.386 38.6909 200.31 37.5803 199.665 36.1704C199.224 35.1858 198.421 34.5872 197.309 34.2958C196.621 34.1146 195.933 33.9413 195.28 33.7681C194.944 31.0585 194.768 30.8852 192.059 29.5698C191.477 29.2863 190.806 28.727 190.691 28.1993C190.382 26.813 189.553 25.8599 188.538 25.348C189.076 22.859 189.65 20.5905 190.047 18.2905C190.321 16.7073 190.788 15.2502 191.918 13.9899C193.347 12.3988 193.815 10.5478 193.956 8.53929C194.106 6.30233 193.091 4.71913 190.965 3.75031C189.491 3.07292 187.859 2.66334 186.314 2.1041C183.808 1.20617 181.479 1.93082 179.934 3.49827C177.631 5.84549 175.311 8.14546 172.654 10.1776C172.275 10.4691 172.028 10.9023 171.666 11.2173C170.413 12.3043 169.169 13.407 167.845 14.4231C166.795 15.2265 165.674 15.4471 164.218 14.9351C161.077 13.8245 158.218 14.3365 155.897 16.7546C154.062 16.5498 152.279 16.5655 150.876 17.9518C147.849 20.9449 147.823 20.7638 149.685 24.0956C147.849 24.2846 146.702 25.3558 145.608 26.5216C143.834 28.412 141.77 29.8613 138.849 30.1212C137.949 30.2 137.013 30.6095 136.246 31.0664C133.687 32.5708 133.537 34.3588 135.601 36.0838C135.601 36.9581 135.575 37.7379 135.61 38.5098C135.663 39.7543 136.184 40.8806 137.41 41.4714C139.052 42.2669 139.466 43.5035 139.678 45.0001C140.349 49.7339 143.164 53.0736 148.15 54.8222C149.932 55.4445 151.3 56.3897 152.394 57.7444C154.538 60.4146 157.468 61.8088 161.148 61.8324C164.192 61.856 166.954 62.4783 169.69 63.8094C173.722 65.7707 177.861 64.4081 180.076 60.8084C180.455 60.1941 180.914 59.6033 181.408 59.052C182.696 57.6263 183.288 57.4451 185.141 58.154C186.129 58.54 187.038 59.1229 187.929 59.6663ZM185.608 56.4133C182.538 55.4051 180.032 56.4606 178.673 59.115C178.284 59.8711 177.825 60.6509 177.199 61.2574C175.558 62.8485 173.537 63.3211 171.234 62.5019C170.695 62.3129 170.14 62.116 169.663 61.8245C167.448 60.5013 164.995 60.0365 162.383 60.1153C158.756 60.2335 155.818 59.0913 153.735 56.3897C152.579 54.8931 151.053 53.9007 149.129 53.2548C144.602 51.7425 142.184 48.647 141.434 44.496C141.099 42.6529 140.464 41.1327 138.505 40.2032C137.305 39.6361 137.252 38.5177 137.234 37.4622C137.225 36.6588 137.913 36.3595 138.602 36.1153C139.449 35.8238 140.331 35.5876 141.196 35.3355C136.784 35.5482 136.784 35.5482 135.337 34.8787C135.822 33.0592 137.066 31.8383 139.149 31.6099C142.599 31.2397 145.008 29.4911 147.144 27.2541C148.979 25.3243 150.7 25.0486 153.338 25.8757C155.041 26.4113 156.85 26.7027 158.633 27.0257C160.053 27.2856 161.368 26.9154 162.63 26.3247C163.38 25.9702 164.157 25.6788 165.048 25.5212C162.939 28.5144 160.653 31.2948 156.788 32.5944C155.218 33.1222 153.629 33.5948 152.067 34.1383C151.423 34.3588 150.832 34.6817 149.906 35.0913C150.497 35.2567 150.709 35.3906 150.85 35.3355C153.894 34.2643 156.938 33.1773 159.974 32.0903C162.533 31.1766 164.086 29.2075 165.851 27.5062C167.095 26.3168 168.242 25.6079 170.21 26.1829C171.128 26.4507 172.354 26.112 173.36 25.8127C174.375 25.5134 175.116 25.4425 175.831 26.2853C177.278 27.9866 179.14 29.1996 181.443 29.7274C181.805 30.7828 182.193 31.7674 182.467 32.7677C182.599 33.2482 182.67 33.8232 182.511 34.28C181.629 36.7533 182.423 38.9115 184.02 40.8964C185.167 42.3221 186.341 43.7635 187.709 45.008C189.562 46.6857 190.859 48.5525 191.468 50.8445C191.918 52.5459 193.038 53.7589 194.997 54.2472C195.253 54.3102 195.545 54.2551 196.065 54.2551C195.615 53.8298 195.368 53.5147 195.042 53.2942C194 52.5931 193.365 51.6637 193.1 50.5452C192.483 47.9775 191.053 45.8744 188.979 44.0155C187.647 42.8261 186.588 41.3926 185.414 40.0615C184.391 38.8957 183.897 37.5567 183.817 36.0838C183.702 34.1068 183.552 32.1376 183.42 30.0661C186.138 29.4359 186.667 32.2479 188.485 33.1143C188.644 32.9095 188.803 32.7992 188.794 32.7126C188.467 30.7198 185.829 28.1205 183.614 28.0024C180.737 27.8449 178.505 26.5925 176.369 25.1274C175.408 24.4658 174.366 24.261 173.299 24.4658C171.384 24.836 169.548 24.6548 167.678 24.2689C166.063 23.9381 164.457 24.1507 163.036 24.9541C161.562 25.7812 160.045 25.8048 158.412 25.474C156.277 25.0329 154.141 24.6312 152.341 23.4024C150.77 22.3312 150.276 21.5829 150.682 20.7323C151.3 19.409 153.188 18.2039 154.556 18.2669C154.847 18.2827 155.147 18.2905 155.421 18.3772C156.612 18.7316 157.53 18.7395 157.962 17.3847C158.086 16.983 158.756 16.6601 159.25 16.4316C160.715 15.7779 162.251 15.8803 163.707 16.4474C166.707 17.6131 169.716 17.2114 172.716 16.5419C173.405 16.3923 174.102 16.0772 174.658 15.6834C176.634 14.2892 177.958 12.4697 178.69 10.28C177.164 10.8078 176.158 11.8632 175.196 12.9502C174.225 14.045 173.122 14.9745 171.49 15.1793C171.216 15.2108 170.925 15.1871 170.413 15.1871C172.196 13.5015 173.634 11.7372 175.505 10.4769C177.72 8.98826 179.29 7.08999 180.993 5.23112C181.602 4.56161 182.52 4.089 183.367 3.62428C183.694 3.44312 184.258 3.41161 184.638 3.51401C186.367 4.01024 188.079 4.54585 189.782 5.12084C190.753 5.45166 190.947 6.1448 190.824 7.02698C190.576 8.7362 189.994 10.2958 188.865 11.7214C187.982 12.832 187.267 14.045 186.544 15.2502C186.288 15.6755 186.235 16.2032 186.456 16.8333C187.162 15.7936 187.779 14.6988 188.582 13.7221C189.447 12.6824 190.479 11.7608 191.803 10.9338C191.459 11.5481 191.238 12.2492 190.762 12.769C189.129 14.5728 188.591 16.6601 188.265 18.9049C188.009 20.6929 187.426 22.4572 186.817 24.1901C186.226 25.8599 186.156 25.8048 187.585 26.9784C188.035 27.3486 188.467 27.8685 188.617 28.3883C189.023 29.8376 189.897 30.7749 191.477 31.3421C193.515 32.0825 193.709 33.1222 192.262 34.6424C191.75 35.178 191.221 35.69 190.506 36.4067C191.759 36.6667 192.518 36.1783 193.294 35.8238C194.803 35.1465 196.7 35.4379 197.442 36.7848C198.483 38.6988 199.877 40.3056 201.527 41.8022C202.03 42.2512 202.348 42.8734 202.701 43.4405C203.566 44.8189 203.442 45.1025 201.801 45.7484C201.545 45.8508 201.307 45.9689 200.68 46.2604C201.607 46.6069 202.216 46.8275 203.027 47.1347C203.222 48.3398 203.557 49.663 203.601 51.0021C203.645 52.2151 202.701 53.1051 201.545 53.562C199.268 54.452 197.971 55.9565 197.512 58.091C197.318 59.0047 196.489 59.1307 195.721 59.2725C193.25 59.7451 190.965 59.3985 188.865 58.0516C187.814 57.4136 186.747 56.7835 185.608 56.4133Z" fill="#333333"/>
<path d="M39.88 1.59143C38.9976 0.512328 37.8769 0.567503 37.0474 1.71748C36.0238 3.12739 35.9973 4.68695 36.2797 6.2859C36.4827 7.42013 36.6503 8.55436 36.4827 9.82249C36.1826 9.56257 35.8385 9.32626 35.5914 9.02695C34.1531 7.30197 32.7677 5.54552 31.294 3.83629C30.9146 3.3952 30.341 2.97775 29.7674 2.80446C29.2998 2.66267 28.5409 2.7493 28.1702 3.02498C27.1908 3.74963 26.5113 4.72633 26.6701 5.93144C26.9084 7.71944 27.0937 9.53108 27.5702 11.2718C28.7879 15.6985 29.335 20.1094 28.1879 24.6148C27.8526 25.9223 27.729 27.2771 27.4025 28.5846C26.8907 30.664 26.8025 32.7356 27.1731 34.8465C27.2613 35.3663 27.1025 35.9965 26.8289 36.4691C25.6024 38.5957 24.164 40.6358 23.061 42.8018C21.4462 45.9682 19.2136 48.7723 17.0782 51.6394C14.7486 54.7664 12.9043 58.1061 11.2895 61.5639C9.63934 65.1005 8.58042 68.771 8.08627 72.5597C7.41562 77.7582 5.4478 82.5236 2.52698 87.0448C1.59161 88.4862 1.071 90.156 0.453303 91.7471C0.250345 92.2748 0.267981 92.905 0.32975 93.4721C0.568005 95.5042 1.82105 96.1343 3.83298 95.2207C4.75952 94.8032 5.6596 94.307 6.51555 93.7714C8.56278 92.5111 10.5659 91.2036 12.5954 89.9197C14.8103 88.5098 16.6105 86.7455 18.1547 84.7763C18.9224 83.7917 19.9107 83.1616 21.0403 82.5157C24.014 80.8301 26.8378 78.9318 29.7145 77.1123C30.0851 76.876 30.4116 76.5925 31.0116 76.1435C31.3028 77.1281 31.5499 77.9394 31.7882 78.7586C32.6971 81.8226 33.1383 84.9259 33.1824 88.1002C33.2795 95.0316 34.3207 101.869 36.8445 108.422C38.3093 112.218 40.3653 115.842 42.3332 119.473C44.2833 123.057 46.1099 126.664 47.1335 130.563C47.3541 131.398 47.7601 132.249 48.2807 132.965C49.4102 134.509 50.9191 134.399 51.9075 132.8C52.631 131.634 52.7634 130.39 52.7811 129.074C52.7987 127.389 52.984 125.703 53.1164 124.025C53.1781 123.269 53.4076 122.513 53.3988 121.765C53.337 118.102 54.1135 114.574 55.1548 111.053C55.7813 108.926 56.0372 106.721 56.5225 104.224C58.1374 106.799 59.611 109.139 61.067 111.486C63.1407 114.833 65.8939 117.724 68.7353 120.552C69.4236 121.237 70.2619 121.836 71.1355 122.348C73.1386 123.529 75.4858 123.135 76.8006 121.34C80.948 115.708 82.6864 109.493 81.6893 102.822C80.9304 97.7176 79.2891 92.7789 77.0389 88.0215C73.818 81.2161 71.5237 74.1586 70.2001 66.8649C69.6442 63.8166 69.5295 60.7054 68.8941 57.6729C67.9146 53.0336 66.7234 48.4179 65.4527 43.8337C64.9409 41.9748 64.0584 40.1868 63.1936 38.4303C60.7493 33.4523 58.2697 28.4901 55.7019 23.5672C54.9342 22.0943 53.8929 20.7316 52.8781 19.3689C52.1545 18.4001 51.8192 17.4392 52.0133 16.2498C52.2869 14.58 52.5693 12.8786 51.6251 11.2718C51.5104 11.067 51.3692 10.878 51.2633 10.7204C49.8602 10.3266 49.2161 11.3506 48.2719 11.9019C45.8099 9.64134 43.7274 7.20747 41.989 4.52156C41.3536 3.51335 40.6477 2.52875 39.88 1.59143ZM28.5938 33.6335C28.7173 32.4205 28.7615 31.2075 28.9732 30.0102C29.3968 27.5842 29.9263 25.1819 30.3939 22.7638C30.844 20.385 30.941 17.9984 30.3851 15.6275C29.7851 13.0598 29.1144 10.4999 28.5232 7.93214C28.2497 6.75852 28.1702 5.56915 28.9026 4.42703C30.2439 6.10476 31.4617 7.64854 32.6971 9.1766C33.7648 10.4999 34.8678 11.8074 35.9003 13.1464C36.1121 13.4143 36.0944 13.8238 36.2356 14.3831C34.2325 13.0992 33.2442 11.2009 31.1087 10.429C31.3205 11.3112 31.6382 12.1225 32.1412 12.8156C32.8206 13.745 33.6413 14.5879 34.409 15.4543C35.3355 16.494 35.8385 17.6676 35.8473 19.0066C35.865 21.9052 35.6267 24.8274 36.6944 27.537C34.0295 29.6637 31.5058 31.6801 28.9909 33.6886C28.8674 33.665 28.735 33.6493 28.5938 33.6335ZM53.1075 110.32C52.0398 113.841 51.4221 117.393 51.5192 121.048C51.5368 121.859 51.4839 122.694 51.3074 123.49C50.8838 125.341 50.8132 127.192 51.0338 129.066C51.1662 130.169 51.078 131.264 50.1073 132.635C49.622 131.437 49.1896 130.587 48.9425 129.697C47.9983 126.341 46.6129 123.143 44.8922 120.04C43.145 116.905 41.4684 113.731 39.8977 110.517C39.0329 108.761 38.2564 106.933 37.7622 105.074C36.218 99.2141 35.0179 93.3066 35.0796 87.2495C35.0884 86.0838 35.0179 84.9023 34.7796 83.7681C34.2943 81.4209 33.7383 79.0815 33.0942 76.7579C32.7324 75.4662 32.8647 74.4658 33.8883 73.3867C35.362 71.835 36.5709 70.0785 37.8857 68.4087C39.6153 66.2111 41.336 64.0136 43.0832 61.8239C43.3656 61.4615 43.7362 61.1622 44.2215 60.6817C44.8745 63.4858 45.4834 66.093 46.0835 68.7001C46.1364 68.9285 46.154 69.1649 46.1629 69.3933C46.2158 70.37 46.2423 71.3545 46.2952 72.3312C46.3305 72.9692 46.4894 73.6152 46.4188 74.2374C45.9599 78.3569 45.6334 82.5 44.9275 86.58C43.9833 91.9913 43.7186 97.371 44.7951 102.782C45.2187 104.909 45.7128 107.043 45.8187 109.186C46.0835 114.991 47.063 120.678 48.9337 126.239C49.0219 126.507 49.1984 126.751 49.3308 127.003C49.5955 126.176 49.569 125.427 49.5602 124.687C49.5514 123.986 49.4808 123.285 49.5778 122.592C50.0014 119.701 50.5132 116.818 50.928 113.928C51.4574 110.226 52.0398 106.524 51.4309 102.766C51.2456 101.616 51.2545 100.427 51.3692 99.2692C51.5368 97.5836 51.8898 95.9138 52.1633 94.244C52.3487 94.244 52.5252 94.244 52.7105 94.2361C53.0105 95.7641 53.5046 97.2843 53.5576 98.8203C53.6017 99.9466 53.0634 101.089 52.7987 102.223C52.6928 102.68 52.234 103.184 52.8958 103.609C53.2929 103.365 53.6282 103.16 54.1047 102.869C54.1047 105.508 53.8223 107.949 53.1075 110.32ZM48.7307 75.6079C48.8719 75.986 49.0749 76.3562 49.1366 76.7422C49.4896 78.8137 49.8338 80.8931 50.1426 82.9647C50.3985 84.7054 49.6308 85.2568 47.4247 84.8787C47.7689 81.8305 48.1218 78.7743 48.4748 75.7103C48.5631 75.6867 48.6513 75.6473 48.7307 75.6079ZM50.8397 86.202C50.5573 89.2187 50.3367 92.1645 49.9838 95.0946C49.8779 96.0083 48.3072 96.8275 47.2659 96.6779C46.5776 96.5755 46.0305 96.3234 46.0658 95.5594C46.1982 92.4796 46.3041 89.4077 47.1247 86.4146C48.2807 86.3437 49.3661 86.2886 50.8397 86.202ZM49.2072 98.135C49.4367 100.813 49.6661 103.365 49.8691 105.917C49.9838 107.398 49.569 107.658 47.7248 107.303C47.2129 104.365 46.41 101.435 46.3129 98.4186C47.3542 98.3162 48.2542 98.2295 49.2072 98.135ZM49.8161 109.288C49.5337 111.99 49.2602 114.55 48.9954 117.118C48.0424 114.487 47.7865 111.328 48.166 109.336C48.6425 109.328 49.1367 109.312 49.8161 109.288ZM54.0341 24.2761C56.849 29.8764 59.6287 35.4845 62.4171 41.0926C62.576 41.4156 62.6995 41.7464 62.8142 42.0851C65.3291 49.3552 67.0852 56.7828 67.9058 64.3444C68.6294 70.9686 70.5178 77.3171 72.9356 83.5554C74.8593 88.5177 77.3566 93.283 78.689 98.4422C79.7656 102.601 80.1892 106.689 79.395 110.927C78.7773 114.219 77.2683 117.165 75.7241 120.127C75.3446 120.851 74.877 121.576 73.9328 121.796C70.756 120.284 69.803 119.244 66.0439 114.77C61.1464 108.942 57.555 102.451 55.1107 95.4727C53.5047 90.8806 52.6399 86.1547 52.0751 81.3972C51.6074 77.4589 50.2838 73.7648 48.8984 70.047C47.8483 67.2351 47.1953 64.305 46.2688 61.4458C45.6158 59.4373 46.004 57.7044 47.4336 56.0582C48.0248 55.3808 48.3248 54.5065 48.7748 53.7267C48.9513 53.4116 49.1719 53.1123 49.3661 52.8051C49.9838 56.0897 50.3367 59.2797 50.5309 62.4776C50.7603 66.1875 51.5721 69.7556 53.0899 73.2213C54.4665 76.3719 55.7637 79.562 57.1138 82.7284C57.2549 83.0671 57.4932 83.3821 57.8903 84.0516C58.305 82.2715 58.3227 80.901 57.802 79.562C57.2638 78.1836 56.7078 76.8052 56.0548 75.474C53.8664 70.9844 52.4193 66.3687 52.3398 61.4221C52.2869 57.6808 51.6427 53.9788 50.6103 50.3476C50.1603 48.7644 50.6985 47.4097 51.7221 45.732C52.0045 46.4487 52.1898 46.7638 52.2428 47.1025C52.6575 49.8199 53.1517 52.5295 53.4164 55.2626C54.0429 61.7451 55.0401 68.1566 57.6697 74.261C59.7522 79.0972 60.8905 84.091 61.4376 89.2423C62.0289 94.7717 63.079 100.23 65.7262 105.334C65.9115 105.697 65.9998 106.114 66.0792 106.516C66.9263 110.541 69.0088 114.125 71.1002 117.693C71.5326 118.433 72.3179 119.071 73.0945 119.567C73.9945 120.15 74.8593 119.819 75.274 118.874C75.4417 118.496 75.4858 118.079 75.5829 117.685C76.6947 112.904 76.43 108.146 75.1417 103.444C74.1798 99.9309 72.9445 96.481 71.8503 92.9995C70.9678 90.1875 69.8824 87.415 69.3089 84.5557C68.5941 80.9561 67.8881 77.3565 67.7999 73.6388C67.6322 67.0776 65.5674 60.7369 63.9525 54.3647C62.4877 48.5675 59.5139 43.2823 56.6019 37.9735C55.2871 35.5711 54.0517 33.0664 53.3635 30.4907C52.6222 27.7496 52.5604 24.8589 52.2075 22.0391C52.3398 21.9919 52.4722 21.9525 52.5957 21.9052C53.0723 22.685 53.6194 23.4569 54.0341 24.2761ZM64.9938 67.1799C65.2056 68.3221 65.4262 69.1727 65.5056 70.0392C65.7704 72.8826 65.9998 75.7261 66.1939 78.5695C66.2204 78.9397 66.088 79.4281 65.8145 79.6801C64.8526 80.5623 63.7761 81.3185 62.3024 81.1137C60.8464 77.1517 59.4257 73.2685 57.9256 69.1806C60.7582 69.6296 62.7877 68.6214 64.9938 67.1799ZM57.3079 67.0067C56.549 63.6591 55.9048 60.2485 55.5607 56.578C58.208 57.216 59.964 55.9243 62.0465 54.6719C62.8407 57.8777 63.5731 60.8235 64.2879 63.7694C64.5438 64.817 63.8114 65.5652 63.1054 66.2269C61.6141 67.6289 59.5051 67.8889 57.3079 67.0067ZM55.4372 54.5853C55.3842 54.1363 55.3577 53.6716 55.2783 53.2147C54.7488 50.2295 54.59 47.1576 53.2223 44.3614C52.6928 43.2745 52.9134 42.6049 53.7606 41.9354C54.3341 41.4786 54.9695 41.0926 55.6136 40.6437C55.9489 40.8957 56.0901 40.9509 56.1342 41.0454C57.7403 44.4717 59.3463 47.9059 60.9346 51.348C61.0582 51.6079 61.1288 51.9229 61.0847 52.1986C60.7935 54.1441 57.555 55.5147 55.4372 54.5853ZM66.5292 81.5233C67.4646 85.0126 68.3911 88.5019 69.3353 92.0306C68.4176 93.0467 67.4028 94.0156 65.6909 93.9762C64.4379 93.9526 64.0231 93.7399 63.8643 92.6214C63.4054 89.2817 63.0172 85.942 62.6201 82.7205C64.0055 82.2873 65.3115 81.8935 66.5292 81.5233ZM70.2442 94.1967C71.0119 96.473 71.7973 98.8675 72.6356 101.246C73.0503 102.428 72.5826 103.302 71.5237 103.932C70.8796 104.318 70.156 104.633 69.4236 104.83C68.197 105.153 67.1293 104.72 66.7763 103.617C65.938 101.002 65.2497 98.3477 64.5703 95.9453C66.5292 95.3467 68.2676 94.8111 70.2442 94.1967ZM73.6239 105.082C73.8357 106.902 74.0651 108.69 74.2504 110.478C74.3034 110.998 74.321 111.533 74.2681 112.053C74.1975 112.738 73.1298 113.707 72.3356 113.825C71.6561 113.92 70.959 113.841 70.6501 113.211C69.6265 111.1 68.3294 109.06 68.0911 106.941C69.9619 106.303 71.6385 105.744 73.6239 105.082ZM74.3299 114.235C73.7916 115.566 74.1357 116.708 73.2445 117.803C72.6444 116.803 72.1414 115.96 71.6031 115.062C72.5209 114.778 73.1915 114.581 74.3299 114.235ZM53.3193 40.1002C53.4076 39.3676 53.434 38.9108 53.5134 38.4697C53.584 38.0522 53.7076 37.6505 53.8576 37.0047C54.3165 37.879 54.643 38.4855 55.0401 39.2416C54.5106 39.5095 54.0165 39.7536 53.3193 40.1002ZM50.3455 13.1386C50.2132 14.4303 50.072 15.73 49.9396 17.0217C49.9396 17.0296 49.9396 17.0453 49.9396 17.0532C49.9485 17.1556 49.9573 17.2501 49.9749 17.3525C50.3191 21.2436 50.4426 25.1661 51.0691 29.0178C51.828 33.6413 52.0839 38.1941 50.6456 42.731C49.8602 45.1964 48.969 47.6302 48.166 50.0956C46.9394 53.8606 44.6451 57.0979 42.0243 60.2013C39.9418 62.6667 37.8681 65.1714 36.0503 67.7943C32.5912 72.7802 28.0026 76.6792 22.2492 79.9558C23.3875 78.3096 25.2141 77.4353 25.6906 75.6158C24.314 75.4189 23.4493 76.1435 22.761 76.8524C20.9697 78.7034 19.2401 80.6096 17.6164 82.5787C15.9045 84.6581 14.175 86.6825 11.8983 88.3208C9.70993 89.8882 7.60094 91.5344 5.44783 93.1413C4.51246 93.8344 3.59471 94.5827 2.30637 94.5984C1.60043 93.732 1.7681 92.8892 2.0946 92.1488C2.74759 90.6286 3.4006 89.0848 4.30949 87.6828C7.1509 83.2876 9.304 78.6955 10.0276 73.6151C10.7776 68.3536 12.4366 63.3283 15.1545 58.6023C15.9575 57.2082 16.8752 55.8691 17.837 54.5616C20.449 51.0014 23.4228 47.6302 25.2935 43.6604C27.7555 38.4225 31.5146 34.1139 36.5003 30.5931C40.6301 27.6788 43.6215 23.961 45.6687 19.621C46.4276 18.0142 47.4071 16.4861 48.3601 14.9502C48.7837 14.2649 49.3749 13.6584 49.8867 13.0125C50.0367 13.0519 50.1955 13.0992 50.3455 13.1386ZM44.7686 16.9902C44.3804 16.045 44.0362 15.218 43.6303 14.2334C45.4658 15.4858 45.5452 15.6748 44.7686 16.9902ZM45.7922 12.217C46.2158 12.7211 46.9218 13.1464 46.5776 14.2098C45.9599 13.6742 45.5275 13.2724 45.0687 12.9101C44.3363 12.3272 43.6744 11.6341 42.8273 11.2403C42.0331 10.8701 41.6625 10.4054 41.486 9.67283C41.3272 8.98757 41.0977 8.31805 40.8595 7.64854C40.6036 6.9239 40.33 6.1914 38.9711 5.70305C39.0947 6.69549 39.1035 7.42803 39.28 8.12905C39.9594 10.815 41.1154 13.3434 42.2361 15.9033C43.1538 17.9984 43.6215 20.3063 42.1214 22.4408C41.4243 23.4254 40.6301 24.3627 39.8182 25.2685C39.4388 25.6938 38.9005 25.9932 38.1505 26.576C38.0093 25.6151 37.824 25.0007 37.8416 24.3863C37.921 20.8891 37.9563 17.3919 38.1857 13.9105C38.3622 11.1851 38.9446 8.4756 38.1416 5.74241C37.8857 4.85235 37.7975 3.85992 38.4152 2.70206C39.377 4.16711 40.1094 5.47464 41.0448 6.65613C42.5626 8.5544 44.2127 10.3581 45.7922 12.217Z" fill="#333333"/>
<path d="M49.3401 16.5652C48.9871 16.8094 48.59 17.0772 48.3959 17.4238C47.5841 18.818 46.5958 20.1806 46.1281 21.6772C45.2721 24.371 44.575 27.1199 44.125 29.8846C43.5514 33.4133 42.2278 36.6506 40.3217 39.7619C38.9716 41.9594 37.7627 44.2279 36.5979 46.5121C35.2919 49.0878 33.7036 51.4901 31.471 53.5144C25.647 58.7918 21.4555 65.0221 18.1199 71.7409C16.8845 74.2299 15.2344 76.4589 13.2401 78.4832C9.79868 81.9804 6.96609 85.8006 4.98946 90.1249C4.65414 90.8574 4.22177 91.5505 3.70996 92.48C4.19529 92.354 4.46 92.3461 4.62766 92.2358C5.81011 91.4166 6.94844 90.5345 8.15736 89.7547C9.60454 88.8253 10.7252 87.6438 11.89 86.4465C14.8814 83.3589 18.0582 80.413 21.129 77.3884C23.4586 75.0963 25.8323 72.8436 28.0207 70.4491C32.1152 65.9752 36.139 61.4462 40.0923 56.862C42.3248 54.2785 44.5927 51.6713 46.3928 48.8436C49.0136 44.7241 50.3902 40.2109 50.0372 35.4061C49.746 31.4521 49.3224 27.5059 49.0224 23.5597C48.9165 22.2285 48.8812 20.8816 49.0313 19.5662C49.1195 18.8101 49.6578 18.0933 49.9843 17.3608C49.9666 17.2584 49.9578 17.1639 49.949 17.0615C49.949 17.0536 49.949 17.0379 49.949 17.03C49.7284 16.8646 49.3842 16.5337 49.3401 16.5652ZM15.1903 80.3028C13.0019 82.7603 10.8046 85.2099 8.6074 87.6595C10.2575 84.8082 12.04 82.0592 14.802 79.9247C15.0226 80.1452 15.1991 80.287 15.1903 80.3028ZM22.585 73.647C20.5907 75.4193 18.7288 77.0891 16.8316 78.7275C16.7257 78.822 16.3551 78.6723 16.0021 78.6251C17.3964 76.585 18.7376 74.6159 20.0966 72.6231C20.8025 72.9145 21.5614 73.2296 22.585 73.647ZM25.3646 70.8193C24.544 71.8433 23.4321 71.9299 22.2409 71.7409C21.0937 71.5597 20.6966 70.8981 21.2349 69.9686C22.3379 68.0625 23.5469 66.2115 24.6675 64.4156C26.2912 65.2663 27.5972 65.9516 28.912 66.6447C27.7295 68.031 26.503 69.3936 25.3646 70.8193ZM36.6773 57.7914C34.9919 59.7842 33.2623 62.0211 31.2857 64.0769C30.0327 65.3845 26.8118 64.4393 26.3088 62.7458C26.2382 62.4937 26.2559 62.1314 26.4147 61.9345C28.1619 59.7054 29.865 57.4448 31.9299 55.7907C33.6153 56.4996 35.0978 57.1298 36.6773 57.7914ZM45.378 46.7484C43.6573 49.6864 41.7071 52.4196 39.3775 54.9164C38.398 55.964 35.6537 55.9877 34.4889 55.0898C33.8712 54.6172 33.6771 54.1288 34.2507 53.4435C35.2566 52.2305 36.2096 50.9781 37.0832 49.6864C37.7803 48.6545 38.3186 47.5361 38.9452 46.4255C41.0718 46.9769 43.1367 47.6778 45.378 46.7484ZM48.0165 35.5636C48.2283 37.8715 47.99 40.1084 47.187 42.306C46.084 45.2991 42.466 46.5987 39.404 44.9762C40.5865 43.0385 41.8571 41.1324 42.9249 39.1396C43.9926 37.1547 44.8486 35.0832 45.8634 32.925C47.2841 33.3739 47.8929 34.2325 48.0165 35.5636ZM47.4782 31.7829C46.8517 31.6411 46.4281 31.5466 46.0134 31.4521C46.0663 29.412 46.2781 28.4747 47.037 27.1199C47.1958 28.7661 47.3282 30.2154 47.4782 31.7829Z" fill="#333333"/>
<path d="M33.9414 34.9971C35.9533 34.8789 37.5947 34.493 39.3066 34.0204C38.9624 32.8625 38.1329 32.8074 37.2858 32.9098C35.9445 33.0752 34.6297 33.3272 33.9414 34.9971Z" fill="#333333"/>
<path d="M33.0322 37.5801C34.3823 37.1941 35.2648 36.95 36.2531 36.6664C34.9912 35.6661 34.1882 35.863 33.0322 37.5801Z" fill="#333333"/>
</svg>
