<svg width="34" height="34" viewBox="0 0 34 34" fill="none" xmlns="http://www.w3.org/2000/svg">
<g id="PhoneCall 1">
<g id="Group">
<path id="Vector" d="M21.1724 5.3125C22.9737 5.79695 24.616 6.74617 25.9349 8.06509C27.2538 9.38401 28.203 11.0263 28.6875 12.8276" stroke="#1A1A1A" stroke-width="1.5" stroke-linecap="round" stroke-linejoin="round"/>
<path id="Vector_2" d="M20.0728 9.41895C21.1533 9.70963 22.1384 10.2791 22.9296 11.0703C23.7208 11.8615 24.2903 12.8466 24.5809 13.9271" stroke="#1A1A1A" stroke-width="1.5" stroke-linecap="round" stroke-linejoin="round"/>
<path id="Vector_3" d="M12.2825 16.5767C13.3843 18.83 15.2105 20.6484 17.4686 21.7405C17.6339 21.8188 17.8168 21.8526 17.9992 21.8387C18.1817 21.8247 18.3573 21.7634 18.5088 21.6608L21.8344 19.4444C21.9813 19.3463 22.1503 19.2864 22.3262 19.2701C22.502 19.2538 22.6792 19.2815 22.8416 19.3509L29.0626 22.0178C29.2739 22.1075 29.4503 22.2635 29.5653 22.4622C29.6802 22.661 29.7275 22.8917 29.7001 23.1196C29.5031 24.6581 28.7523 26.072 27.5881 27.0968C26.4238 28.1216 24.926 28.687 23.375 28.6871C18.5845 28.6871 13.9903 26.7841 10.6029 23.3967C7.21551 20.0093 5.3125 15.4151 5.3125 10.6246C5.31264 9.07369 5.87805 7.57602 6.90286 6.41196C7.92767 5.2479 9.34162 4.49726 10.88 4.30059C11.1079 4.2731 11.3386 4.32041 11.5373 4.43538C11.7361 4.55036 11.892 4.72678 11.9818 4.93809L14.6508 11.1643C14.7195 11.3252 14.7473 11.5005 14.7319 11.6748C14.7166 11.849 14.6584 12.0167 14.5626 12.1631L12.3526 15.5397C12.2523 15.6918 12.1931 15.8672 12.1809 16.049C12.1686 16.2307 12.2036 16.4125 12.2825 16.5767V16.5767Z" stroke="#1A1A1A" stroke-width="1.5" stroke-linecap="round" stroke-linejoin="round"/>
</g>
</g>
</svg>
