<svg width="38" height="38" viewBox="0 0 38 38" fill="none" xmlns="http://www.w3.org/2000/svg">
<g id="times">
<path id="Vector" d="M23.9071 18L31.3156 10.6085C32.2248 9.70142 32.2248 8.2308 31.3156 7.32301L29.6691 5.68028C28.76 4.77324 27.286 4.77324 26.3761 5.68028L18.9675 13.0718L11.5589 5.68028C10.6498 4.77324 9.17575 4.77324 8.26587 5.68028L6.61935 7.32301C5.71022 8.23006 5.71022 9.70068 6.61935 10.6085L14.0279 18L6.61935 25.3915C5.71022 26.2986 5.71022 27.7692 6.61935 28.677L8.26587 30.3197C9.17501 31.2268 10.6498 31.2268 11.5589 30.3197L18.9675 22.9282L26.3761 30.3197C27.2852 31.2268 28.76 31.2268 29.6691 30.3197L31.3156 28.677C32.2248 27.7699 32.2248 26.2993 31.3156 25.3915L23.9071 18Z" fill="#FF1F1F"/>
<path id="Vector_2" d="M23.3773 17.4691L22.8452 18L23.3773 18.5309L30.7857 25.9223C30.7858 25.9223 30.7859 25.9224 30.7859 25.9225C31.4016 26.5374 31.4012 27.5322 30.7859 28.146L29.1394 29.7888C28.523 30.4037 27.5222 30.4037 26.9058 29.7888L19.4972 22.3972L18.9675 21.8687L18.4378 22.3972L11.0292 29.7888C10.4128 30.4037 9.41198 30.4037 8.79559 29.7888L7.14929 28.1463C7.14922 28.1462 7.14914 28.1461 7.14907 28.146C6.53345 27.5311 6.53383 26.5363 7.14907 25.9225L14.5577 18.5309L15.0898 18L14.5577 17.4691L7.14929 10.0777C7.14922 10.0777 7.14914 10.0776 7.14907 10.0775C6.53345 9.46259 6.53383 8.46777 7.14907 7.85395L8.79537 6.21144C8.79545 6.21137 8.79552 6.2113 8.79559 6.21123C9.4129 5.59607 10.413 5.59645 11.0292 6.21123L18.4378 13.6028L18.9675 14.1313L19.4972 13.6028L26.9056 6.21144C27.5229 5.59607 28.5231 5.59638 29.1394 6.21123L30.7857 7.85374C30.7858 7.85381 30.7859 7.85388 30.7859 7.85395C31.4015 8.46889 31.4012 9.4637 30.7859 10.0775L23.3773 17.4691Z" fill="#FF1F1F" stroke="white" stroke-width="1.5"/>
</g>
</svg>
