<svg width="80" height="80" viewBox="0 0 80 80" fill="none" xmlns="http://www.w3.org/2000/svg">
<g clip-path="url(#clip0_354_7537)">
<path d="M74.3941 12.887C73.9913 11.6235 73.2729 10.6342 72.3787 9.92493C71.8257 9.48669 71.5126 8.81287 71.5126 8.1073V2.34375C71.5126 1.69678 70.9883 1.17188 70.3407 1.17188H67.997C67.35 1.17188 66.8251 1.69678 66.8251 2.34375V7.23206C66.8251 8.09753 66.3515 8.89832 65.5843 9.29871C64.4795 9.87549 63.5243 10.8081 62.903 12.1094C60.2834 17.5958 55.6343 28.9551 46.0854 38.4857C36.5547 48.0347 25.1955 52.6837 19.709 55.3033C14.6834 57.7026 15.1271 65.0867 20.4866 66.7944C23.6171 67.7917 27.0943 68.2697 30.7344 68.2037C41.3558 68.0121 52.527 62.0551 61.0909 53.4912C69.6553 44.9274 75.6117 33.7561 75.804 23.1348C75.8693 19.4946 75.3914 16.0175 74.3941 12.887V12.887Z" fill="#FFCF5D"/>
<path d="M69.4656 13.5974C69.6774 13.7653 69.8287 13.9984 69.9276 14.3103C70.7736 16.9659 71.1739 19.906 71.1172 23.0505C70.9579 31.842 65.9707 41.9824 57.7767 50.177C49.5822 58.3716 39.4412 63.3588 30.6497 63.5175C28.1655 63.5626 26.1691 65.5322 26.0537 67.9791C27.5723 68.1573 29.1378 68.233 30.7345 68.2043C41.3558 68.0121 52.5271 62.0557 61.0909 53.4918C69.6554 44.9274 75.6118 33.7561 75.8041 23.1348C75.8694 19.4946 75.3915 16.0175 74.3942 12.887C73.9913 11.6235 73.2729 10.6342 72.3788 9.92493C71.8258 9.48669 71.5127 8.81287 71.5127 8.1073V2.34375C71.5127 1.69678 70.9884 1.17188 70.3408 1.17188H67.9971C67.3501 1.17188 66.8252 1.69678 66.8252 2.34375V8.1073C66.8252 10.2655 67.7877 12.2662 69.4656 13.5974V13.5974Z" fill="#FFB545"/>
<path d="M14.9386 35.5105L10.997 33.0148C10.0057 32.3868 8.76002 33.3218 9.10303 34.4363L10.2597 38.193C11.1215 40.9933 12.9061 43.4274 15.328 45.1077L19.2007 47.6559C19.2013 43.0929 19.0243 38.0978 14.9386 35.5105Z" fill="#28D05B"/>
<path d="M25.6829 45.9551C23.4106 45.872 21.209 46.4635 19.2004 47.5841C17.1929 46.4641 14.9908 45.8714 12.7184 45.9551C7.96685 46.1577 4.54949 48.7059 2.72698 51.9865C0.897761 55.3215 0.663996 59.3895 2.12274 63.878C4.35357 70.7225 10.274 76.8541 15.8984 77.1751C16.4507 77.213 16.9909 77.2014 17.5164 77.1459C18.6285 77.0287 19.7729 77.0287 20.8849 77.1459C21.4105 77.2014 21.9506 77.213 22.503 77.1751C28.1268 76.8541 34.0478 70.7225 36.2786 63.878C37.7374 59.3895 37.503 55.3215 35.6744 51.9865C33.8519 48.7059 30.4345 46.1577 25.6829 45.9551Z" fill="#FF5368"/>
<path d="M35.6743 51.9871C34.7826 50.3812 33.5076 48.9518 31.8816 47.8867C32.0519 48.1437 32.2124 48.4061 32.3613 48.6741C34.1906 52.009 34.4249 56.0764 32.9656 60.5656C31.4678 65.1615 28.3062 69.4358 24.688 71.8455C22.6897 73.176 20.3319 73.8627 17.9308 73.8627H8.7041C10.9386 75.7896 13.4465 77.0359 15.8983 77.1757C16.4507 77.2135 16.9908 77.2019 17.517 77.1464C18.637 77.0274 19.7667 77.0286 20.8867 77.1464C21.4116 77.2019 21.9512 77.2129 22.5035 77.1757C28.1273 76.8546 34.0483 70.723 36.2792 63.8785C37.7379 59.39 37.5035 55.322 35.6743 51.9871V51.9871Z" fill="#D9435B"/>
<path d="M67.8676 48.2031C67.375 46.1426 65.522 44.6094 63.3101 44.6094C61.0975 44.6094 59.2451 46.1426 58.752 48.2031C52.3463 50.1538 47.6851 56.1084 47.6851 63.1519C47.6851 71.7816 54.6803 78.7769 63.3101 78.7769C71.9392 78.7769 78.9351 71.7816 78.9351 63.1519C78.9351 56.1084 74.2738 50.1538 67.8676 48.2031V48.2031Z" fill="#FF983B"/>
<path d="M72.577 50.5723C74.4905 53.165 75.6215 56.37 75.6215 59.8398C75.6215 68.469 68.6262 75.4642 59.9965 75.4642C56.5272 75.4642 53.3223 74.3333 50.7295 72.4198C53.575 76.276 58.1501 78.7772 63.3101 78.7772C71.9392 78.7772 78.9351 71.782 78.9351 63.1522C78.9351 57.9929 76.4332 53.4177 72.577 50.5723V50.5723Z" fill="#FF7E40"/>
<path d="M72.2358 48.7672L71.0792 45.0105C70.2174 42.2102 68.4334 39.7755 66.0109 38.0958L64.4819 37.0893C63.4761 36.4277 62.1382 37.1491 62.1382 38.3527V40.0178C62.1382 43.1513 63.6366 45.9431 66.4003 47.693L70.3419 50.1893C71.3331 50.8161 72.5795 49.8817 72.2358 48.7672V48.7672Z" fill="#28D05B"/>
<path d="M52.5035 19.7377C52.2399 19.1524 51.5337 18.9095 50.941 19.1548L50.2843 19.427L50.7872 18.9241C51.2407 18.47 51.2871 17.7248 50.847 17.2579C50.3917 16.7751 49.6306 16.7659 49.1643 17.2322L48.6272 17.7693L48.9177 17.0674C49.1655 16.4693 48.8817 15.7839 48.2836 15.5361C47.6854 15.2876 47 15.5727 46.7522 16.1708L46.1162 17.7071C45.9648 18.0721 46.0124 18.459 46.1974 18.763C46.5105 19.2793 46.4604 19.9355 46.0338 20.3627C45.5803 20.8162 45.5345 21.5614 45.9746 22.0284C46.4305 22.5118 47.191 22.5197 47.6567 22.054L47.6793 22.0314C48.1121 21.5987 48.7749 21.5517 49.3016 21.863C49.605 22.0424 49.9877 22.0863 50.3472 21.9374L51.8834 21.3014C52.4925 21.0494 52.7757 20.3432 52.5035 19.7377V19.7377Z" fill="#28D05B"/>
<path d="M49.253 20.459C48.3973 20.2295 47.5068 20.5017 46.9215 21.1365L43.0763 19.9365L40.2314 22.923L39.0235 27.428C39.0101 27.4243 38.9967 27.4194 38.9826 27.4158C37.7326 27.0795 36.4472 27.821 36.1116 29.071C35.7759 30.321 36.5168 31.6071 37.7668 31.9427C39.0174 32.2784 40.3028 31.5369 40.6385 30.2869C40.735 29.9268 40.7502 29.5569 40.6721 29.1937C40.9114 29.917 41.5046 30.5176 42.2962 30.73C43.5469 31.0651 44.8316 30.3229 45.1667 29.0729C45.2699 28.689 45.2741 28.2861 45.1783 27.901C45.2845 28.2696 45.4829 28.6169 45.7734 28.9075C46.6883 29.823 48.1727 29.823 49.0876 28.9075C50.0031 27.9919 50.0031 26.5082 49.0876 25.5933C48.7989 25.3046 48.4455 25.1013 48.0665 24.9945C49.3086 25.3119 50.5775 24.5709 50.9101 23.3295C51.2452 22.0795 50.5036 20.7941 49.253 20.459Z" fill="#D9435B"/>
<path d="M45.9382 17.1464C44.1951 16.6801 42.6039 18.2804 43.0677 20.0163C42.7968 19 41.8727 18.2798 40.804 18.2798C40.2046 18.2798 39.6046 18.5087 39.1469 18.9665C38.2313 19.882 38.2313 21.3657 39.1469 22.2807C39.463 22.5974 39.8457 22.805 40.251 22.9026C38.9747 22.5285 37.6637 23.2865 37.3268 24.5463C36.9923 25.7969 37.7345 27.0817 38.9851 27.4162C40.2357 27.7506 41.5205 27.0078 41.855 25.7578C41.9612 25.3605 41.9612 24.943 41.855 24.5463C42.1199 25.518 43.0024 26.2821 44.1188 26.2821C44.1224 26.2821 44.1261 26.2815 44.1298 26.2815C46.1909 26.2724 47.2529 23.7577 45.7759 22.2813C45.4719 21.9767 45.1124 21.7783 44.7358 21.6764C45.9834 22.0048 47.2627 21.2632 47.5966 20.0156C47.931 18.7656 47.1882 17.4809 45.9382 17.1464V17.1464Z" fill="#FF5368"/>
<path d="M46.1226 4.323C45.8748 3.72546 45.1893 3.44165 44.5912 3.68884L43.8887 3.97998L44.4264 3.44226C44.8842 2.9845 44.8842 2.24292 44.4264 1.78516C43.9686 1.32739 43.2271 1.32739 42.7693 1.78516L42.2316 2.32288L42.5227 1.62036C42.7705 1.02283 42.4867 0.336792 41.8886 0.0895999C41.291 -0.158203 40.605 0.125611 40.3572 0.723755L39.7212 2.26001L43.9522 6.49036L45.4884 5.85437C46.0866 5.60657 46.3704 4.92114 46.1226 4.323Z" fill="#28D05B"/>
<path d="M33.8826 3.49068C36.3234 1.04989 39.9489 1.38131 42.3897 3.8221C44.8305 6.2629 45.1619 9.889 42.7211 12.3298C40.2803 14.7706 33.7819 17.3115 31.3411 14.8707C28.9003 12.4299 31.4418 5.93148 33.8826 3.49068V3.49068Z" fill="#FF5368"/>
<path d="M42.3894 3.8219C41.8035 3.23596 41.1486 2.77332 40.4589 2.43945C41.5154 4.62268 41.2627 7.16174 39.4078 9.0166C37.553 10.8715 33.3562 12.7812 30.3765 12.5219C30.4589 13.4636 30.7549 14.2845 31.3408 14.8705C33.7816 17.3113 40.28 14.7704 42.7208 12.3296C45.1616 9.88879 44.8302 6.2627 42.3894 3.8219Z" fill="#D9435B"/>
<path d="M30 24.0244C30 28.3396 26.5021 31.8369 22.1875 31.8369C17.8729 31.8369 14.375 28.3396 14.375 24.0244C14.375 19.7098 17.8729 16.2119 22.1875 16.2119C26.5021 16.2119 30 19.7098 30 24.0244Z" fill="#5C87BD"/>
<path d="M25.8008 17.0977C26.366 18.1786 26.687 19.4072 26.687 20.7109C26.687 25.0261 23.1891 28.5234 18.8745 28.5234C17.5702 28.5234 16.3422 28.2024 15.2612 27.6372C16.5656 30.1323 19.1766 31.8364 22.1875 31.8364C26.5021 31.8364 30 28.3391 30 24.0239C30 21.0131 28.2959 18.402 25.8008 17.0977Z" fill="#456EA2"/>
<path d="M73.296 49.7513C73.3998 49.3351 73.3919 48.8889 73.2582 48.4537L72.1028 44.6952C71.169 41.6562 69.211 38.9792 66.5895 37.1567C66.5816 37.1512 66.5736 37.1464 66.5657 37.1409L65.0386 36.1338C63.2582 34.9601 60.8839 36.2424 60.8839 38.3774V40.0437C60.8839 41.3322 61.1128 42.5669 61.5462 43.7095C59.7945 44.2307 58.3705 45.5515 57.7309 47.3093C54.6053 48.3976 51.8111 50.4349 49.8115 53.0979C47.6918 55.9208 46.5382 59.2661 46.4571 62.7946C43.1325 64.4889 39.8079 65.6919 36.5388 66.384C39.1487 60.4154 39.2049 53.5941 34.7554 48.848C36.6536 47.6639 38.4627 46.4274 40.146 45.1578C42.5648 43.3347 44.8195 41.3773 46.8495 39.34C54.6272 31.558 59.1017 22.9111 62.9585 14.5835C63.8838 12.5852 64.3123 11.2516 66.0377 10.3452C67.1895 9.73975 67.9054 8.55017 67.9054 7.23669V2.34595H70.2461V8.11255C70.2461 9.19104 70.724 10.189 71.5541 10.85C72.317 11.4597 72.8651 12.2678 73.1801 13.2517C75.771 21.4084 74.499 30.0175 70.8473 37.7549C70.4829 38.5221 71.0384 39.4279 71.9038 39.4279C72.3543 39.4279 72.7699 39.1648 72.9616 38.7583L72.9634 38.7571C74.1774 36.1832 75.1247 33.5831 75.7765 31.027C77.4049 24.6537 77.1846 18.1302 75.4097 12.54C74.9605 11.1204 74.1304 9.90088 73.0086 9.01282C72.7443 8.80469 72.5868 8.46716 72.5868 8.11255V2.34595C72.5868 1.05322 71.537 0.000976562 70.2461 0.000976562H67.9054C66.6151 0.00219727 65.5659 1.05322 65.5647 2.34595V7.23669C65.5647 7.66943 65.3242 8.07288 64.9544 8.26514C62.5136 9.53894 61.8501 11.4072 60.8363 13.5923C57.7699 20.2164 53.3211 29.5554 45.1955 37.681C41.6853 41.2034 37.6601 44.3326 32.9109 47.2318C30.8772 45.7749 28.4065 44.929 25.6886 44.813C24.1664 44.7568 22.6643 44.9705 21.197 45.4484C23.3833 41.1271 26.6219 38.1382 30.8607 36.5415C32.1437 37.8281 33.6732 36.0428 32.6179 34.9857L31.9942 34.3601C31.6804 34.0464 31.2172 33.9365 30.796 34.0769C26.3033 35.5778 22.6772 38.4946 20.1106 42.6249C19.7066 39.5511 18.597 36.4817 15.5409 34.5432L11.6048 32.0457C10.7307 31.4915 9.63516 31.5397 8.81302 32.1696C7.99942 32.7921 7.668 33.826 7.96829 34.8038L9.12369 38.563C9.85611 40.9464 11.2209 43.1052 13.0397 44.8057C8.46206 44.8325 4.09744 47.1207 1.69327 51.4567C-0.299533 55.0968 -0.53818 59.5316 1.00296 64.2826C2.16018 67.8391 4.25491 71.2388 6.90201 73.8547C9.69375 76.6141 12.8566 78.2267 15.7942 78.3951C16.404 78.4366 17.0168 78.425 17.6125 78.3622C18.647 78.2523 19.6968 78.2523 20.7307 78.3616C21.0951 78.4006 21.4638 78.4196 21.8312 78.4196C22.0674 78.4196 22.3036 78.4116 22.5368 78.3958C25.5025 78.2261 28.6781 76.6001 31.4772 73.8163C32.8944 72.407 34.1505 70.7737 35.1894 69.0165C38.9442 68.4232 42.7681 67.1927 46.5865 65.3477C47.6454 73.6014 54.7029 80.0004 63.224 80.0004C72.4745 80.0004 79.9995 72.4607 79.9995 63.1931C80.0001 57.8696 77.513 52.9221 73.296 49.7513V49.7513ZM11.3606 37.8727L10.2058 34.1135C10.1967 34.0848 10.1912 34.0659 10.2345 34.0323C10.3285 33.9609 10.041 33.8291 14.2891 36.5244V36.525C17.1883 38.364 17.8389 41.6208 17.9707 45.4917L15.9596 44.1654C13.7727 42.642 12.1394 40.4075 11.3606 37.8727ZM35.1155 63.5557C33.0873 69.7904 27.6015 75.7566 22.3909 76.0551C21.9173 76.0874 21.4418 76.0789 20.9773 76.03C20.3786 75.9659 19.7755 75.9348 19.1725 75.9348C18.5689 75.9348 17.9658 75.9666 17.3665 76.03C16.9038 76.0789 16.4284 76.0874 15.9407 76.0544C13.5585 75.9177 10.9328 74.5438 8.54568 72.1854C6.16043 69.8276 4.272 66.7631 3.22891 63.5569C1.89285 59.437 2.07168 55.6431 3.74283 52.5901C5.56473 49.3033 8.84659 47.3234 12.7406 47.1567C14.5424 47.0908 16.3222 47.4912 18.0403 48.3451L18.5286 48.6667C18.9851 48.9677 19.6162 48.9237 20.0246 48.4873C21.8288 47.5358 23.7056 47.089 25.5965 47.1567C32.8816 47.468 38.1557 54.1843 35.1155 63.5557ZM63.2246 38.3774C63.2246 38.1058 63.5225 37.9423 63.752 38.093C65.1588 39.0208 66.9563 40.0205 68.5396 42.5168C68.5744 42.8409 68.7416 43.1461 69.0205 43.3469C69.3636 43.9976 69.6492 44.6787 69.8659 45.3849L71.0213 49.1434C71.0298 49.1721 71.0359 49.1917 70.992 49.2246C70.9346 49.2686 70.8998 49.2466 70.8742 49.2307L66.9374 46.7325C62.9311 44.191 63.2246 40.4954 63.2246 38.3774V38.3774ZM63.2246 77.6554C55.2657 77.6554 48.7898 71.1674 48.7898 63.1931C48.7898 57.363 52.1883 52.2373 57.4031 49.9534C57.4922 50.7963 57.765 51.6147 58.2143 52.3594C58.434 52.7238 58.8209 52.9252 59.2171 52.9252C59.4234 52.9252 59.6321 52.8702 59.8213 52.7561C60.3743 52.421 60.5519 51.6996 60.2174 51.1454C59.7389 50.3525 59.5943 49.4156 59.8109 48.5074C60.0948 47.3173 60.9547 46.3969 62.054 46.0099V49.2802C62.054 49.9216 62.5484 50.4819 63.1886 50.5009C63.8515 50.521 64.3953 49.9888 64.3953 49.329V47.7567C65.1277 48.389 65.6331 48.6814 66.7323 49.379C66.7238 49.9998 66.5535 50.6132 66.2318 51.1454C65.8974 51.6996 66.0744 52.421 66.628 52.7561C66.8172 52.8702 67.0259 52.9252 67.2322 52.9252C67.6283 52.9252 68.0147 52.7238 68.235 52.3594C68.5371 51.8595 68.7599 51.3169 68.9003 50.7542L69.6217 51.2119C70.027 51.4695 70.4799 51.5964 70.9309 51.5964C71.1848 51.5964 71.4381 51.5555 71.6829 51.475C75.4372 54.1965 77.6594 58.5264 77.6594 63.1931C77.6594 71.1674 71.1842 77.6554 63.2246 77.6554V77.6554Z" fill="#1A1A1A"/>
<path d="M22.1554 33.0302C27.1029 33.0302 31.1282 28.9976 31.1282 24.0403C31.1282 19.083 27.1029 15.0498 22.1554 15.0498C17.2073 15.0498 13.1826 19.083 13.1826 24.0403C13.1826 28.9976 17.2073 33.0302 22.1554 33.0302ZM22.1554 17.3954C25.812 17.3954 28.7875 20.3763 28.7875 24.0403C28.7875 27.7042 25.812 30.6852 22.1554 30.6852C18.4982 30.6852 15.5233 27.7042 15.5233 24.0403C15.5233 20.3763 18.4982 17.3954 22.1554 17.3954Z" fill="#1A1A1A"/>
<path d="M19.8033 23.3052C20.0316 23.5341 20.3313 23.6483 20.631 23.6483C20.93 23.6483 21.2297 23.5341 21.4586 23.3052L21.801 22.9616L22.144 23.3052C22.3723 23.5341 22.672 23.6483 22.9717 23.6483C23.2713 23.6483 23.5704 23.5341 23.7993 23.3052C24.2564 22.8469 24.2564 22.1047 23.7993 21.6469L23.4563 21.3033L23.7993 20.9597C24.2564 20.5019 24.2564 19.7591 23.7993 19.3013C23.3421 18.8436 22.6012 18.8436 22.144 19.3013L21.801 19.645L21.4586 19.3013C21.0014 18.8436 20.2605 18.8436 19.8033 19.3013C19.3462 19.7591 19.3462 20.5019 19.8033 20.9597L20.1457 21.3033L19.8033 21.6469C19.3462 22.1047 19.3462 22.8469 19.8033 23.3052Z" fill="#1A1A1A"/>
<path d="M43.4902 13.1664C45.4445 11.2078 45.9633 8.48499 45.082 6.00085L45.4262 5.85803C46.0231 5.61023 46.3069 4.9248 46.0591 4.32605C45.812 3.72791 45.1271 3.44409 44.5302 3.69189L43.9644 3.92627C43.9528 3.91101 43.9424 3.89575 43.9308 3.88049L44.3654 3.4447C44.8226 2.98694 44.8226 2.24414 44.3654 1.78638C43.9083 1.32861 43.1673 1.32861 42.7101 1.78638L42.2744 2.22339C42.2591 2.21179 42.2444 2.20081 42.2292 2.18982L42.4642 1.62158C42.7114 1.02344 42.4282 0.337403 41.8306 0.0895999C41.2343 -0.158203 40.5489 0.125611 40.3017 0.723755L40.1601 1.06738C37.6601 0.171387 34.9617 0.705445 33.0074 2.66345C30.2748 5.40149 27.3897 12.6232 30.4695 15.7091C33.5677 18.814 40.79 15.8721 43.4902 13.1664V13.1664ZM31.8636 9.50732C32.4282 7.51758 33.553 5.43384 34.6627 4.32239C36.6475 2.33325 39.5345 2.68054 41.5035 4.65381C43.5817 6.73572 43.7209 9.61841 41.8349 11.5081C40.7253 12.6201 38.6452 13.7468 36.6597 14.3126C34.576 14.9059 32.8804 14.8088 32.1242 14.0508C31.3686 13.2939 31.2709 11.5953 31.8636 9.50732Z" fill="#1A1A1A"/>
<path d="M38.1866 9.63544C38.6438 9.17767 38.6438 8.43488 38.1866 7.97711C37.7295 7.51935 36.9885 7.51935 36.5313 7.97711C36.0742 8.43488 36.0742 9.17767 36.5313 9.63544C36.9885 10.0932 37.7295 10.0932 38.1866 9.63544Z" fill="#1A1A1A"/>
<path d="M34.8761 12.9518C35.3333 12.4941 35.3333 11.7513 34.8761 11.2935C34.4189 10.8358 33.678 10.8358 33.2208 11.2935C32.7643 11.7513 32.7643 12.4941 33.2208 12.9518C33.678 13.4102 34.4189 13.4102 34.8761 12.9518Z" fill="#1A1A1A"/>
<path d="M34.8761 9.63544C35.3333 9.17767 35.3333 8.43488 34.8761 7.97711C34.4189 7.51935 33.678 7.51935 33.2208 7.97711C32.7643 8.43488 32.7643 9.17767 33.2208 9.63544C33.678 10.0932 34.4189 10.0932 34.8761 9.63544Z" fill="#1A1A1A"/>
<path d="M38.1866 12.9518C38.6438 12.4941 38.6438 11.7513 38.1866 11.2935C37.7295 10.8358 36.9885 10.8358 36.5313 11.2935C36.0742 11.7513 36.0742 12.4941 36.5313 12.9518C36.9885 13.4102 37.7295 13.4102 38.1866 12.9518Z" fill="#1A1A1A"/>
<path d="M41.4966 9.63544C41.9537 9.17767 41.9537 8.43488 41.4966 7.97711C41.04 7.51935 40.2984 7.51935 39.8419 7.97711C39.3847 8.43488 39.3847 9.17767 39.8419 9.63544C40.2984 10.0932 41.04 10.0932 41.4966 9.63544Z" fill="#1A1A1A"/>
<path d="M38.1866 6.31903C38.6438 5.86127 38.6438 5.11847 38.1866 4.66071C37.7295 4.20294 36.9885 4.20294 36.5313 4.66071C36.0742 5.11908 36.0742 5.86127 36.5313 6.31903C36.9885 6.77679 37.7295 6.77679 38.1866 6.31903Z" fill="#1A1A1A"/>
<path d="M43.4641 16.3995C43.0064 16.6742 42.6188 17.049 42.3295 17.4866C41.0465 16.8469 39.4071 17.0056 38.2652 18.15C37.1397 19.2773 36.9596 20.9167 37.6139 22.2229C36.9016 22.6892 36.3712 23.407 36.1436 24.259C35.9184 25.1038 36.0142 25.979 36.4048 26.7523C35.5924 27.2827 35.0315 28.1311 34.8625 29.0924C34.5414 30.9137 35.6999 32.6819 37.4986 33.1183C38.9945 33.4808 40.4679 32.8339 41.2638 31.626C42.288 32.1436 43.5594 32.1564 44.6421 31.5057C45.1029 31.2286 45.4923 30.8502 45.7829 30.4071C47.0603 31.0486 48.6997 30.9064 49.8484 29.7559C50.9672 28.6346 51.154 26.9977 50.5003 25.6873C51.2504 25.1984 51.7942 24.433 52.003 23.5187C52.1751 22.7649 52.0817 21.9989 51.7844 21.3257C52.3716 21.0999 52.6786 20.4468 52.4705 19.8474C52.2581 19.2352 51.591 18.913 50.98 19.1248L50.2903 19.3652L50.7523 18.9026C51.2095 18.4448 51.2095 17.702 50.7523 17.2443C50.2952 16.7865 49.5542 16.7865 49.0971 17.2443L48.635 17.7069L48.8749 17.016C49.0873 16.4044 48.765 15.7361 48.1541 15.5231C47.559 15.3162 46.9102 15.6189 46.6819 16.2018C45.6815 15.7617 44.4859 15.7867 43.4641 16.3995V16.3995ZM46.4005 19.726C46.3773 19.812 46.3657 19.8987 46.3621 19.9841L45.9367 20.4108C44.8722 21.4771 46.4262 23.2367 47.6841 21.9763C48.09 21.568 48.5282 21.4832 48.9555 21.6272C50.0395 21.9922 50.0065 23.6108 48.8419 23.8818C47.6884 24.1498 47.3026 25.5957 48.1663 26.4093C48.3958 26.6254 48.5307 26.936 48.5355 27.2601C48.5508 28.2996 47.2508 28.8641 46.5055 28.0688C45.7023 27.2095 44.2533 27.5983 43.9878 28.7463C43.7809 29.6374 42.6475 29.9896 41.9883 29.2847C41.1833 28.4235 39.7379 28.8141 39.4694 29.967C39.3339 30.5487 38.7266 31.0034 38.0491 30.8386C37.064 30.6 36.8089 29.2609 37.7018 28.703C38.1974 28.3936 38.621 28.5791 38.7949 28.6053C40.2372 28.9166 41.649 28.2623 42.4033 27.0508C42.5077 27.1069 42.6164 27.1582 42.7281 27.2046C45.192 28.2202 47.8599 26.1066 46.5403 24.7839C46.0832 24.3262 45.3422 24.3262 44.885 24.7839C44.1691 25.5011 42.9887 25.0079 42.8941 24.093C42.8129 22.2125 40.4948 22.5183 40.5467 23.9923C40.5583 24.9756 40.781 25.5927 40.1658 26.0968C39.8814 26.33 39.503 26.3885 39.2521 26.3043C38.9756 26.3043 38.1706 25.7428 38.4049 24.8651C38.5166 24.4458 38.8493 24.1241 39.2722 24.0247C40.4209 23.7555 40.8122 22.3059 39.9491 21.499C39.7178 21.283 39.5817 20.9723 39.5762 20.647C39.5585 19.6033 40.8756 19.0436 41.605 19.8218C42.4082 20.6793 43.8523 20.2924 44.1209 19.1467C44.1923 18.8446 44.3907 18.5773 44.6653 18.4125C45.5467 17.8839 46.6758 18.6957 46.4005 19.726V19.726Z" fill="#1A1A1A"/>
<path d="M57.1382 55.3906C57.1382 56.0382 56.6133 56.5625 55.9663 56.5625C55.3187 56.5625 54.7944 56.0382 54.7944 55.3906C54.7944 54.7437 55.3187 54.2188 55.9663 54.2188C56.6133 54.2188 57.1382 54.7437 57.1382 55.3906Z" fill="#1A1A1A"/>
<path d="M60.2632 59.7666C60.2632 60.4136 59.7383 60.9385 59.0913 60.9385C58.4443 60.9385 57.9194 60.4136 57.9194 59.7666C57.9194 59.119 58.4443 58.5947 59.0913 58.5947C59.7383 58.5947 60.2632 59.119 60.2632 59.7666Z" fill="#1A1A1A"/>
<path d="M54.0127 63.2041C54.0127 63.8511 53.4884 64.376 52.8408 64.376C52.1938 64.376 51.6689 63.8511 51.6689 63.2041C51.6689 62.5571 52.1938 62.0322 52.8408 62.0322C53.4884 62.0322 54.0127 62.5571 54.0127 63.2041Z" fill="#1A1A1A"/>
</g>
<defs>
<clipPath id="clip0_354_7537">
<rect width="80" height="80" fill="white"/>
</clipPath>
</defs>
</svg>
