<svg width="80" height="80" viewBox="0 0 80 80" fill="none" xmlns="http://www.w3.org/2000/svg">
<g clip-path="url(#clip0_354_7442)">
<path d="M53.2586 62.312C48.3825 62.1922 45.2856 59.8371 43.5027 57.6887C41.9061 55.7654 41.2048 53.1199 40.393 50.056C39.2638 45.7942 37.8582 40.4896 33.4502 35.6058C29.0801 30.7642 23.6761 28.6556 18.908 26.7953C11.8688 24.0494 9.01238 22.6857 9.01238 16.4332C9.01238 15.7495 9.01482 14.2677 10.2746 12.5615C4.68499 16.2583 1.10589 20.9177 1.19195 26.0388C1.41595 39.365 15.2044 36.9102 23.4307 46.0247C32.1301 55.6633 25.3033 65.0389 42.9272 71.8943C52.1862 75.4957 67.6977 70.7318 75.4748 51.4895C75.2831 51.7329 63.5345 62.5646 53.2586 62.312V62.312Z" fill="#EA3942"/>
<path d="M78.8092 37.5354C78.8092 53.6534 65.2728 70.2379 47.8027 66.7196C29.2175 62.9764 36.4972 51.2108 27.7985 41.5723C19.5715 32.4578 4.89746 35.9393 4.89746 21.5875C4.89746 8.58425 27.3621 5.11189 47.8027 8.35186C64.7168 11.0329 78.8092 21.4175 78.8092 37.5354V37.5354Z" fill="#F3E8D7"/>
<path d="M67.5325 16.2002C70.5208 20.3612 72.2609 25.3135 72.2609 30.9745C72.2609 47.0918 58.7245 63.6764 41.2538 60.1581C38.6158 59.6273 36.4998 58.9338 34.7847 58.1088C36.5242 61.9408 39.7126 65.0909 47.8029 66.72C65.2729 70.2382 78.8093 53.6537 78.8093 37.5358C78.8093 28.5112 74.3904 21.2846 67.5325 16.2002V16.2002Z" fill="#E5D6C1"/>
<path d="M52.5067 61.4284C49.8963 61.5415 47.2827 61.1043 44.8834 60.0304C43.2593 59.3033 41.723 58.2795 40.6824 56.8332C39.5508 55.2609 39.0863 53.3187 38.6017 51.4418C37.5708 47.4478 36.3074 43.4324 33.9526 40.0481C30.4755 35.0506 24.9188 31.8766 19.2108 29.7748C17.2009 29.0348 15.1148 28.3884 13.374 27.1384C11.6333 25.889 10.2643 23.8715 10.4389 21.7329C10.6635 18.9852 13.2398 17.0595 15.752 15.9349C22.6727 12.8374 30.6806 12.3854 38.1494 12.9493C45.7642 13.5235 53.9014 14.9209 60.6629 18.6324C67.3401 22.2974 72.2955 28.6275 72.962 36.3324C73.6176 43.9119 70.1013 52.0913 64.2279 56.9207C60.943 59.6219 56.7291 61.2455 52.5067 61.4284Z" fill="#FC4E51"/>
<path d="M72.9619 36.3324C72.3723 29.5174 68.4258 23.7792 62.9009 20.0078C64.7856 22.8527 66.0094 26.1172 66.3176 29.6751C66.9731 37.2546 63.4569 45.4341 57.5835 50.2634C54.298 52.9646 50.0841 54.5883 45.8617 54.7711C43.6113 54.8684 41.3591 54.5559 39.2437 53.7798C39.5867 54.8665 40.02 55.9129 40.6823 56.8333C41.7229 58.2796 43.2592 59.3033 44.8833 60.0304C47.282 61.1043 49.8955 61.5416 52.5066 61.4284C56.7284 61.2456 60.9429 59.6219 64.2278 56.9207C70.1018 52.0913 73.6174 43.9119 72.9619 36.3324V36.3324Z" fill="#EA3942"/>
<path d="M37.5525 23.4972C37.5525 26.2015 35.3644 28.3939 32.6654 28.3939C29.9664 28.3939 27.7783 26.2015 27.7783 23.4972C27.7783 20.793 29.9664 18.6006 32.6654 18.6006C35.3644 18.6006 37.5525 20.793 37.5525 23.4972Z" fill="#F3E8D7"/>
<path d="M70.4332 17.0077C64.8027 12.0683 56.8321 8.57573 47.9882 7.17406C40.1464 5.93079 32.0439 5.68923 25.1732 6.49464C17.5902 7.38321 11.66 9.49794 8.02416 12.6101C7.8319 12.7746 7.64696 12.9422 7.46752 13.1122C2.50597 16.9906 -0.0758192 21.4659 0.00169544 26.0586C0.0688341 30.0551 1.31395 33.1299 3.80907 35.4587C5.99535 37.4994 8.84813 38.7555 11.8688 40.085C15.6182 41.7356 19.4951 43.4418 22.5481 46.8249C25.6725 50.2868 26.6905 53.758 27.6744 57.1154C28.5045 59.9444 29.362 62.8706 31.4537 65.5889C33.7914 68.6277 37.3003 70.9846 42.4962 73.0058C44.5268 73.7959 46.7693 74.1842 49.099 74.1842C52.7831 74.1842 56.6857 73.2119 60.3081 71.3155C65.1763 68.7659 71.9359 63.3513 76.5361 52.0377C78.7596 47.5422 79.9999 42.5275 79.9999 37.5355C79.9999 29.597 76.6918 22.4988 70.4332 17.0077ZM59.2046 69.2013C53.8909 71.9845 47.9668 72.5752 43.358 70.7822C32.9802 66.7454 31.5801 61.971 29.959 56.4427C28.9482 52.9966 27.8032 49.0913 24.3132 45.2251C20.9184 41.4635 16.6191 39.5707 12.8258 37.9012C7.0598 35.3627 2.50536 33.358 2.38146 26.0182C2.34972 24.1267 2.88622 22.3875 3.73216 20.8268C3.71691 21.0782 3.70653 21.3307 3.70653 21.587C3.70653 25.8855 4.97606 29.1225 7.58715 31.4836C9.87535 33.5525 12.8642 34.7187 16.0283 35.9528C19.8931 37.4603 23.889 39.0191 26.9151 42.3722C29.9529 45.7382 30.9288 49.4197 31.8718 52.9801C32.7257 56.2011 33.5314 59.2435 35.7298 61.8915C38.1871 64.852 41.9487 66.7576 47.5676 67.889C49.2015 68.218 50.8348 68.3806 52.4535 68.3806C57.1184 68.3806 61.6594 67.0291 65.7219 64.4197C63.4203 66.6653 61.1486 68.1831 59.2046 69.2013V69.2013ZM74.4768 50.8397C74.4365 50.9027 74.4005 50.9699 74.3712 51.0415C74.3578 51.0757 74.3431 51.1081 74.3297 51.1418C72.4767 54.8349 69.9053 58.1409 66.7803 60.7051C63.6467 63.2767 58.8378 66.0109 52.5585 66.0109C51.1272 66.0109 49.6184 65.8684 48.037 65.5504C37.0818 63.344 35.7982 58.5005 34.1735 52.3679C33.2042 48.7115 32.1062 44.567 28.6815 40.7724C25.2776 37.001 20.8226 35.263 16.892 33.7298C10.8556 31.3748 6.08751 29.5151 6.08751 21.587C6.08751 18.8118 7.25939 16.4017 9.57079 14.4239C14.1216 10.5284 23.0876 8.40388 33.712 8.40388C38.1261 8.40388 42.8276 8.77081 47.6164 9.52974C56.0216 10.8623 63.568 14.1555 68.8646 18.802C74.5922 23.8271 77.6189 30.3052 77.6189 37.5355C77.6189 42.1135 76.494 46.7093 74.4768 50.8397V50.8397Z" fill="#1A1A1A"/>
<path d="M73.0608 38.8464C72.4035 38.7926 71.8297 39.2788 71.7748 39.935C71.2853 45.7569 68.3831 51.6082 64.1369 55.4248C62.5798 54.1877 61.9683 52.1922 61.0289 49.1216C60.2471 46.5635 59.2736 43.3798 57.3778 39.4898C55.5694 35.7777 52.2088 32.6294 48.7304 30.1496C51.3598 28.6134 57.7147 25.722 67.733 26.1727C69.6685 28.7174 70.9807 31.6014 71.5374 34.6549C71.6423 35.2303 72.1428 35.6333 72.7068 35.6333C72.7782 35.6333 72.8502 35.6266 72.9223 35.6138C73.5692 35.4951 73.9977 34.8738 73.8793 34.2256C73.2238 30.6315 71.6417 27.2533 69.3059 24.3155C69.2894 24.2922 69.2711 24.2696 69.2522 24.247C67.1453 21.6161 64.4323 19.3418 61.2346 17.5866C55.3386 14.3497 48.0315 12.4986 38.2384 11.7598C28.9818 11.0608 21.4678 12.0711 15.2666 14.8463C12.3736 16.1409 10.4332 17.9224 9.63857 19.9698C9.63246 19.9857 9.62636 20.0016 9.62026 20.0181C9.4225 20.5416 9.29738 21.0816 9.25221 21.6363C9.06117 23.973 10.3747 26.4534 12.6806 28.1083C13.9476 29.0183 15.3618 29.6163 16.4525 30.0353C17.0659 30.2719 17.7544 29.9643 17.99 29.3491C18.2256 28.7345 17.9192 28.0441 17.3052 27.8086C16.2883 27.4172 15.1079 26.917 14.0673 26.1691C12.7904 25.2524 11.4782 23.6311 11.6253 21.8308C11.632 21.7519 11.6424 21.6675 11.6564 21.5794C17.2423 21.4724 23.5875 22.5793 26.596 23.1829C26.5905 23.2868 26.588 23.392 26.588 23.4972C26.588 26.8546 29.3145 29.5864 32.6653 29.5864C34.8278 29.5864 36.729 28.4483 37.8063 26.739C41.7724 28.5021 51.8255 33.5321 55.2385 40.5361C57.0519 44.258 57.9949 47.342 58.7523 49.82C59.6917 52.8912 60.4186 55.2676 62.2265 56.9335C59.3584 58.8996 55.8764 60.0885 52.4547 60.2371C49.9193 60.3471 47.5353 59.9111 45.3692 58.9418C43.7029 58.1957 42.4511 57.2521 41.6478 56.136C40.6994 54.8175 40.2727 53.1584 39.8211 51.4021L39.7545 51.1428C38.7224 47.1451 37.4242 42.9517 34.9297 39.3662C32.2289 35.4854 28.0565 32.2766 22.5274 29.8292C21.9262 29.5625 21.223 29.8353 20.9575 30.4383C20.692 31.0406 20.9636 31.7445 21.5654 32.0112C26.6893 34.2794 30.5285 37.213 32.9766 40.7306C35.2562 44.0066 36.4733 47.9584 37.4492 51.7402L37.5158 51.9977C38.0022 53.8904 38.5058 55.848 39.7173 57.531C40.7689 58.9926 42.3436 60.1998 44.3981 61.1195C46.6533 62.1292 49.1021 62.6392 51.6893 62.6392C51.9768 62.6392 52.2667 62.6325 52.5579 62.6203C57.0452 62.4252 61.4422 60.7391 64.9456 57.8728C64.9486 57.8704 64.9517 57.8679 64.9541 57.8655C64.9639 57.8575 64.9736 57.8502 64.9828 57.8429C70.1464 53.5975 73.5717 46.9781 74.1466 40.1349C74.2022 39.4787 73.7157 38.9014 73.0608 38.8464V38.8464ZM36.3512 23.7675C36.2542 24.4518 36.2279 24.8824 35.6579 25.6682C34.9852 26.5959 33.8952 27.2014 32.6653 27.2014C30.6402 27.2014 28.991 25.5612 28.9696 23.537C29.0465 22.2796 29.5012 21.5843 29.5012 21.5843C30.1494 20.5116 31.325 19.7931 32.6653 19.7931C34.7039 19.7931 36.3622 21.4553 36.3622 23.4972C36.3622 23.5883 36.3573 23.6782 36.3512 23.7675ZM38.659 24.5014C38.7133 24.1742 38.7426 23.8391 38.7426 23.4972C38.7426 20.1392 36.0161 17.4074 32.6653 17.4074C30.2544 17.4074 28.167 18.8213 27.1856 20.8645C24.3621 20.2903 18.5192 19.2506 12.9522 19.1889C13.6437 18.4709 14.6825 17.7199 16.2377 17.024C22.069 14.4145 29.207 13.4709 38.0596 14.1381C47.5023 14.8506 54.5031 16.6112 60.0902 19.6787C62.1593 20.8144 64.0032 22.1861 65.584 23.7388C54.898 23.7424 48.5967 27.3071 46.5569 28.6886C43.4209 26.7011 40.4345 25.2793 38.659 24.5014Z" fill="#1A1A1A"/>
</g>
<defs>
<clipPath id="clip0_354_7442">
<rect width="80" height="80" fill="white"/>
</clipPath>
</defs>
</svg>
